<svg width="1440" height="1024" viewBox="0 0 1440 1024" fill="none" xmlns="http://www.w3.org/2000/svg">
<path d="M-247.958 1205.5C-92.8923 1260.37 97.1111 1205.86 194.657 1078.52C210.483 1057.83 224.426 1034.4 225.53 1008.81C228.652 936.593 135.79 898.199 60.074 894.709C-91.0621 887.779 -244.271 939.98 -356.567 1036.68C-392.392 1067.53 -426.334 1115.09 -404.935 1156.33C-387.359 1190.23 -341.897 1199.86 -302.356 1202.42C-110.119 1215 86.3717 1151.68 231.209 1030.5C285.392 985.149 335.645 913.546 303.238 852.157C288.488 824.235 259.498 805.859 230.321 791.564C66.211 711.055 -144.545 725.761 -294.605 828.187C-347.307 864.168 -395.272 933.949 -356.028 983.148C-331.911 1013.41 -286.449 1018.08 -246.639 1016.28C-45.9769 1007.22 145.695 891.295 239.823 722.091C251.074 701.842 261.275 678.821 255.353 656.596C247.198 626.004 212.61 609.836 181.091 600.109C30.7619 553.682 -138.085 564.384 -280.662 629.34C-345.288 658.803 -410.184 738.721 -358.585 786.097C-338.775 804.293 -308.897 807.656 -281.388 807.861C-111.895 809.067 55.2293 720.089 143.058 581.862C167.013 544.161 185.532 497.323 167.283 456.8C149.572 417.482 103.41 397.849 60.0201 386.89C-68.4254 354.476 -208.983 367.847 -328.197 423.821C-383.052 449.562 -439.792 497.195 -429.86 554.734C-418.098 622.899 -324.455 644.713 -253.045 633.087C-78.1956 604.6 60.505 472.891 149.195 326.425C168.763 294.114 186.985 255.926 173.958 220.74C162.518 189.866 130.192 170.926 98.6456 157.94C-33.7029 103.429 -193.264 113.387 -317.053 183.861C-346.876 200.85 -376.215 223.05 -387.17 254.489C-404.639 304.56 -366.58 360.302 -316.165 382.014C-265.723 403.752 -207.449 399.338 -152.916 390.355C96.923 349.19 329.132 217.404 486.162 27.6167C506.942 2.5171 527.479 -29.5889 515.663 -59.5134C503.066 -91.5423 461.184 -101.757 425.385 -103.81C284.558 -111.894 141.093 -61.7975 39.0521 31.107C-22.9097 87.517 -65.8412 192.124 0.319523 244.018C26.2401 264.344 61.6083 269.091 95.0655 271.735C370.018 293.55 651.968 225.129 882.535 80.6391C937.767 46.0181 992.247 -31.9499 939.813 -70.3179C921.779 -83.5093 897.339 -84.6386 874.622 -84.6129C691.724 -84.4333 486.674 -29.5632 401.51 124.807C388.617 148.162 378.82 175.237 386.168 200.671C399.734 247.79 460.834 263.343 511.868 267.706C778.26 290.521 1051.89 228.285 1278.8 93.2916C1344.34 54.2819 1413.92 -14.8318 1383.37 -82.5084C1359.2 -136.018 1285.74 -150.236 1225.05 -143.41C1089.12 -128.114 964.792 -40.0341 910.232 79.6382C890.475 122.959 881.27 178.035 913.704 213.759C934.457 236.601 967.133 245.506 998.249 251.332C1201.01 289.315 1419.95 240.194 1583.68 119.982C1641.31 77.662 1694.39 -3.23171 1645.64 -54.6885C1601.5 -101.269 1519.27 -71.8322 1470.2 -29.9995C1400.44 29.4645 1349.83 109.075 1326.76 195.563C1319.12 224.205 1315.7 258.03 1336.29 280.101C1353.12 298.143 1380.57 302.275 1405.76 304.816C1580.72 322.345 1758.4 315.005 1931.12 283.13" stroke="#FC6250" stroke-width="5" stroke-miterlimit="10"/>
</svg>
