<svg fill="none" height="180" viewBox="0 0 180 180" width="180" xmlns="http://www.w3.org/2000/svg"><path d="m174.804 16.8186c.049 1.0863.077 2.1656.077 3.2379.002 4.1272-.373 8.2459-1.121 12.3047l-.074-.0141c-6.092-2.5654-11.127-7.1299-14.277-12.941l-.035-.0668c5.029-1.4326 10.207-2.2785 15.43-2.5207z" fill="#fc6605"/><path d="m131.231 83.5312c-1.269.4886-2.557.9386-3.864 1.3499l-5.396-4.9113-4.739-4.3172-5.878-5.3472c.274-1.2446.584-2.4762.931-3.695 2.036-7.2466 5.263-14.1042 9.549-20.2921 9.028-13.0527 22.29-22.5837 37.539-26.9789l.036.0668c3.149 5.8111 8.185 10.3756 14.277 12.941l.073.014c-2.891 15.6359-11.168 29.7652-23.393 39.934-5.716 4.7726-12.182 8.569-19.135 11.236z" fill="#e5f5fd"/><path d="m152.409 93.579-12.442 13.866-7.942-7.323c-2.286-2.1064-3.651-5.0278-3.8-8.1326-.148-3.1047.931-6.1432 3.006-8.458 6.953-2.667 13.418-6.4634 19.135-11.236l.011.0106c-.927 1.5821-1.281 3.4346-1.005 5.2472.277 1.8125 1.167 3.475 2.524 4.709 1.567 1.428 2.503 3.4199 2.603 5.538.099 2.118-.646 4.189-2.073 5.7577z" fill="#fc6605"/><path d="m139.968 107.445 12.442-13.866c-2.313 35.413-31.932 63.425-68.1327 63.425-8.9151.012-17.7467-1.718-25.998-5.094v-.003c36.3094-19.93 55.1527-49.669 61.0907-60.23l.151-.1652.138.1265 2.313-11.6683 5.396 4.9113c1.305-.4113 2.593-.8613 3.864-1.35-2.074 2.3149-3.154 5.3533-3.005 8.4581.148 3.1047 1.513 6.0261 3.8 8.1326z" fill="#49bdff"/><path d="m128.882 37.7087c-2.577 2.6753-4.935 5.5546-7.049 8.6097-1.488 1.07-3.299 1.5965-5.129 1.4915-1.83-.1049-3.569-.835-4.925-2.068-1.569-1.4282-3.64-2.175-5.759-2.0761s-4.112 1.0353-5.54 2.6034l-12.6567 13.7039 8.0333 7.2246c2.281 2.0493 5.2684 3.1333 8.3324 3.0238 3.065-.1095 5.967-1.404 8.096-3.6109-.348 1.2199-.659 2.4516-.932 3.6949l5.879 5.3473-11.757 3.0726.123.1126c-3.22 4.3699-11.095 14.8148-20.9317 26.184l-1.8105-2.116c-.2778-.324-.5414-.661-.791-1.009l-3.5543-4.9255c-1.9653-2.7246-5.1082-4.5316-8.4832-4.4437-.3389.011-.6737-.0769-.9633-.2531l-7.2633-4.3313c-1.0461-.6203-2.2339-.9615-3.4497-.9911-1.2157-.0295-2.4187.2536-3.4937.8224l-3.8285 2.039c-1.6741.8924-3.623 1.1213-5.4584.6412-1.8354-.4802-3.4225-1.6342-4.4451-3.2322l-3.7195-5.8359c-.8414-1.321-1.2769-2.8597-1.2525-4.4257.0244-1.5659.5075-3.0903 1.3896-4.3845.9484-1.3979 2.2664-2.505 3.8071-3.1977 1.5407-.6928 3.2435-.944 4.9187-.7257l5.5757.7066c.9717.1334 1.9612-.0205 2.8465-.4428.8852-.4224 1.6275-1.0946 2.1352-1.9337.8757-1.4921 2.1707-2.6939 3.724-3.4559 1.5533-.7619 3.2963-1.0505 5.0123-.8297l2.4363.3094c.8545.1063 1.7219-.0104 2.5179-.3387.796-.3284 1.4934-.8573 2.0243-1.5351l2.1481-2.7739c.9469-1.2133 1.4791-2.6987 1.5183-4.2373.0393-1.5386-.4166-3.0491-1.3004-4.3091l-4.6336-6.6411c-1.7797-2.5516-4.0954-4.6838-6.7851-6.2472-.7062-.4118-1.3881-.8637-2.0426-1.3535l-3.9058-2.9145-4.9465-3.702c12.1401-6.3114 25.8897-8.8502 39.4833-7.2904 13.5934 1.5598 26.4104 7.147 36.8054 16.0444z" fill="#49bdff"/><path d="m105.6 78.838-.123-.1125 11.756-3.0727 4.739 4.3172-2.313 11.6684-.138-.1266z" fill="#4b93ff"/><path d="m119.521 91.5117-.152.1652c-5.938 10.5611-24.7813 40.3001-61.0906 60.2301-6.295 3.455-12.8284 6.457-19.5504 8.982 0 0-62.3496 18.991-17.1985-44.793-23.98357 46.537 19.9266 27.036 20.8196 26.607l.0035-.004c5.8008-2.844 12.0761-7.481 18.3586-13.015 8.3355-7.337 16.6816-16.252 23.9554-24.662 9.8368-11.3693 17.7114-21.8142 20.9324-26.1841z" fill="#fadf4a"/><path d="m111.78 45.7417c1.356 1.2331 3.095 1.9632 4.925 2.0681 1.83.105 3.641-.4215 5.129-1.4915-4.285 6.1879-7.512 13.0456-9.548 20.2922-2.129 2.2069-5.031 3.5014-8.096 3.6109-3.064.1095-6.0515-.9745-8.3326-3.0238l-8.0332-7.2246 12.6558-13.7039c1.429-1.5681 3.422-2.5045 5.541-2.6034s4.19.6479 5.759 2.076z" fill="#fc6605"/><path d="m82.8562 102.906 1.8106 2.116c-7.2738 8.41-15.6199 17.325-23.9555 24.662l-.232-.26c-.345-1.158-.8991-2.244-1.6348-3.203l-7.8855-10.279c-.7093-.925-1.2344-1.978-1.5469-3.101l-2.6016-9.334c-.4634-1.635-1.3413-3.122-2.5486-4.3175-1.2072-1.1955-2.7029-2.0589-4.342-2.5064l-.566-.1512c-1.1478-.3133-2.2023-.9009-3.0727-1.7121l-4.855-4.5422c-.7679-.72-1.4285-1.5463-1.9617-2.4539-1.1345-1.9365-2.8427-3.4727-4.8884-4.396-2.0456-.9233-4.3277-1.1881-6.5304-.7579l-.9316.1828-.8192-.0773c2.1762-23.4211 16.3231-43.3969 36.2989-53.8207l4.9464 3.7019 3.9059 2.9145c.6544.4898 1.3364.9417 2.0426 1.3535 2.6896 1.5635 5.0053 3.6956 6.7851 6.2473l4.6336 6.641c.8838 1.26 1.3397 2.7706 1.3004 4.3092-.0392 1.5386-.5715 3.0239-1.5183 4.2373l-2.1481 2.7738c-.5309.6779-1.2283 1.2067-2.0243 1.5351s-1.6634.4451-2.5179.3387l-2.4363-.3093c-1.716-.2208-3.459.0677-5.0123.8297-1.5533.7619-2.8483 1.9637-3.724 3.4558-.5078.8392-1.25 1.5114-2.1352 1.9337-.8853.4223-1.8748.5763-2.8465.4429l-5.5758-.7067c-1.6751-.2183-3.3779.033-4.9186.7257-1.5407.6928-2.8587 1.7998-3.8071 3.1978-.8821 1.2941-1.3652 2.8185-1.3896 4.3845-.0244 1.5659.4111 3.1047 1.2525 4.4256l3.7195 5.836c1.0226 1.5979 2.6097 2.7519 4.4451 3.2321 1.8353.4802 3.7842.2513 5.4584-.6411l3.8285-2.0391c1.075-.5687 2.2779-.8519 3.4937-.8224 1.2158.0296 2.4036.3709 3.4497.9912l7.2633 4.3312c.2896.1762.6244.2642.9632.2531 3.375-.0879 6.518 1.7192 8.4832 4.4438l3.5543 4.9256c.2496.348.5133.685.791 1.009z" fill="#9be147"/><path d="m60.4797 129.424.2321.261c-6.2824 5.533-12.5578 10.17-18.3586 13.014l-.0035.004c-9.0425-6.997-16.1802-16.156-20.7563-26.634-3.7014-8.505-5.6057-17.683-5.5933-26.9583 0-2.1375.0984-4.2492.2953-6.3351l.8191.0773.9317-.1828c2.2027-.4303 4.4847-.1654 6.5304.7579 2.0456.9233 3.7538 2.4595 4.8883 4.396.5333.9075 1.1939 1.7339 1.9617 2.4539l4.8551 4.5422c.8704.8112 1.9249 1.3987 3.0727 1.7121l.566.1512c1.6391.4475 3.1347 1.3108 4.342 2.5064 1.2072 1.1952 2.0852 2.6832 2.5486 4.3172l2.6016 9.334c.3125 1.123.8376 2.176 1.5468 3.101l7.8856 10.28c.7357.959 1.2897 2.044 1.6347 3.202z" fill="#49bdff"/><path d="m150.525 43.4883c1.238 1.1274 2.114 2.5967 2.518 4.2221.403 1.6253.315 3.3338-.252 4.9093-.568 1.5756-1.59 2.9474-2.937 3.9421s-2.959 1.5676-4.632 1.6463c-1.673.0786-3.332-.3405-4.766-1.2044-1.435-.8639-2.581-2.1338-3.294-3.6492-.713-1.5153-.96-3.208-.711-4.864.249-1.6561.983-3.2011 2.11-4.4397 1.512-1.6608 3.622-2.653 5.866-2.7585 2.243-.1055 4.437.6844 6.098 2.196z" fill="#4b93ff"/><path d="m113.203 90.8578c.023.4488-.017.8984-.119 1.336-.219.9352-.708 1.7853-1.407 2.4438s-1.577 1.0961-2.524 1.2581l-6.17 1.0618.479-6.2438c.093-1.2397.656-2.3969 1.574-3.2354.918-.8386 2.121-1.2952 3.364-1.2768s2.432.5104 3.325 1.3758c.893.8653 1.421 2.0387 1.478 3.2805z" fill="#ff6262"/><path d="m84.2766 21.2169c-11.0311-.0186-21.9023 2.6365-31.6828 7.7379l4.9464 3.7019 3.9059 2.9145.9914.4148c10.3087-5.3563 21.8073-8.0109 33.4208-7.7154 11.6137.2955 22.9627 3.5314 32.9847 9.4051-12.404-10.6475-28.219-16.488-44.5664-16.4588z" fill="#3090fc"/><path d="m62.2097 36.1092c-.2574-.1757-.5143-.3515-.7636-.5382l-3.9059-2.9145-4.9464-3.7019c-19.9758 10.4238-34.1227 30.3996-36.2989 53.8207l.8192.0773.9316-.1828c1.526-.2982 3.0983-.2638 4.6098.1009 1.5114.3648 2.9264 1.0513 4.1483 2.0127 3.5803-21.1472 16.9931-38.9767 35.4059-48.6742z" fill="#50dd5a"/><path d="m32.4919 118.529c-3.7015-8.505-5.6058-17.682-5.5934-26.9576 0-2.1375.0984-4.2492.2953-6.3352l.1726.0162c-1.2467-1.1241-2.7378-1.9426-4.3554-2.3908-1.6177-.4483-3.3174-.5139-4.9648-.1918l-.9317.1828-.8191-.0773c-.1969 2.0859-.2953 4.1976-.2953 6.3351-.0124 9.2753 1.8919 18.4536 5.5933 26.9576 4.5761 10.478 11.7138 19.637 20.7563 26.635l.0035-.004c1.6845-.835 3.3253-1.756 4.9159-2.758-6.2579-6.12-11.2755-13.39-14.7772-21.412z" fill="#3090fc"/><g fill="#fff"><path d="m34.4037 29.8619c-.4365.0002-.8623-.1349-1.2187-.3868-.3565-.2519-.626-.6082-.7715-1.0197-.1454-.4116-.1596-.8581-.0406-1.278.119-.42.3653-.7927.7051-1.0667 1.402-1.131 2.8575-2.2279 4.3242-3.2593.2266-.1593.4824-.2724.7528-.3328.2703-.0605.5499-.067.8228-.0194s.5337.1485.7676.297c.2339.1484.4362.3414.5955.5681.1593.2266.2724.4824.3328.7527.0604.2704.067.55.0194.8229-.0477.2729-.1486.5337-.297.7676s-.3415.4362-.5681.5955c-1.3922.9784-2.7724 2.0183-4.1024 3.0913-.3741.3027-.8407.4677-1.3219.4676z"/><path d="m10.0411 63.2811c-.34168 0-.67828-.083-.98081-.2418-.30254-.1589-.56194-.3889-.7559-.6702-.19397-.2814-.31668-.6056-.35758-.9449-.04091-.3392.00122-.6833.12276-1.0027 4.09023-10.7517 10.44103-20.5001 18.62293-28.5863.1955-.1996.4286-.3584.686-.4671.2573-.1088.5337-.1653.813-.1664.2794-.0011.5562.0533.8143.1601.2582.1067.4926.2637.6896.4618s.3526.4334.458.6921c.1053.2587.1582.5358.1556.8152-.0027.2793-.0608.5554-.1709.8121-.1102.2567-.2703.489-.471.6833-7.7559 7.6637-13.7762 16.903-17.6541 27.0936-.1517.4001-.4217.7446-.7739.9878-.3522.2431-.77.3733-1.198.3734z"/><path d="m148.613 137.404c-.389-.001-.77-.109-1.102-.312-.331-.204-.6-.495-.776-.842-.177-.347-.254-.736-.222-1.124.031-.388.169-.76.398-1.074 1.363-1.87 2.653-3.819 3.834-5.794.288-.48.754-.827 1.296-.963.543-.137 1.118-.052 1.598.235s.826.753.963 1.296c.136.543.052 1.117-.236 1.597-1.247 2.085-2.608 4.142-4.046 6.114-.196.269-.453.488-.749.638-.297.151-.625.229-.958.229z"/><path d="m156.111 124.794c-.355-.001-.705-.091-1.017-.262-.311-.172-.574-.42-.765-.72-.19-.301-.301-.645-.322-1-.022-.355.047-.71.199-1.031.642-1.356 1.253-2.752 1.815-4.149.914-2.275 1.727-4.623 2.416-6.979 1.136-3.893 1.959-7.87 2.464-11.8934.398-3.2004.598-6.4224.597-9.6475 0-.5595.223-1.096.618-1.4916.396-.3956.932-.6178 1.492-.6178.559 0 1.096.2222 1.491.6178.396.3956.618.9321.618 1.4916 0 3.4004-.212 6.7975-.633 10.1717-.532 4.2462-1.402 8.4432-2.601 12.5512-.727 2.488-1.585 4.967-2.551 7.369-.594 1.477-1.238 2.95-1.916 4.382-.171.361-.44.666-.778.88-.337.213-.727.327-1.127.328z"/><path d="m46.5609 22.3593c-.4811-.0004-.9513-.1434-1.3511-.4109-.3999-.2676-.7114-.6476-.8953-1.0922-.1838-.4446-.2317-.9337-.1376-1.4056.0941-.4718.3259-.9051.6663-1.2451.3403-.3401.7738-.5716 1.2457-.6653s.961-.0453 1.4054.1389c.4445.1842.8243.4961 1.0915.8962s.4098.8704.4097 1.3515c-.0009.6452-.2578 1.2637-.7142 1.7197-.4565.4561-1.0752.7124-1.7204.7128z"/><path d="m142.801 144.242c-.481 0-.951-.143-1.351-.411-.4-.267-.711-.647-.895-1.092s-.232-.934-.138-1.406c.094-.471.326-.905.666-1.245.341-.34.774-.571 1.246-.665s.961-.045 1.406.139c.444.184.824.496 1.091.896s.41.871.41 1.352c-.001.645-.258 1.263-.714 1.719-.457.456-1.076.713-1.721.713z"/></g><path d="m121.122 174.336c-.557 0-1.101-.165-1.564-.474-.464-.31-.825-.75-1.038-1.264-.213-.515-.269-1.081-.16-1.628.108-.546.377-1.048.771-1.442.393-.394.895-.662 1.442-.771.546-.109 1.112-.053 1.627.16s.955.574 1.264 1.037c.31.464.475 1.008.475 1.565-.001.747-.298 1.463-.826 1.991s-1.244.825-1.991.826z" fill="#d8ff33"/><path d="m125.367 166.202c-.767 0-1.517-.227-2.154-.654-.638-.426-1.135-1.031-1.429-1.74-.293-.708-.37-1.488-.22-2.24.149-.752.519-1.443 1.061-1.986.542-.542 1.233-.911 1.985-1.061.753-.15 1.532-.073 2.241.221.708.293 1.314.79 1.74 1.428s.654 1.387.654 2.154c-.001 1.028-.41 2.014-1.137 2.741s-1.713 1.136-2.741 1.137z" fill="#d8ff33"/><path d="m14.3157 19.4315c-.5571 0-1.1016-.1652-1.5648-.4747s-.8243-.7494-1.0375-1.2641-.2689-1.081-.1603-1.6274c.1087-.5464.377-1.0483.7709-1.4422s.8958-.6622 1.4422-.7709 1.1128-.0529 1.6275.1603c.5146.2132.9546.5742 1.2641 1.0374s.4747 1.0078.4747 1.5649c-.0009.7468-.2979 1.4628-.826 1.9908-.528.5281-1.244.8251-1.9908.8259z" fill="#d8ff33"/><path d="m18.5607 11.2972c-.7669.0001-1.5166-.2272-2.1543-.6532s-1.1348-1.03153-1.4284-1.74c-.2936-.70848-.3705-1.4881-.221-2.24029s.5186-1.44317 1.0608-1.98558c.5421-.5424 1.2329-.91186 1.9851-1.06167.7521-.14981 1.5317-.07324 2.2403.22003s1.3144.79007 1.7407 1.42758c.4262.63751.6539 1.38711.6542 2.15401-.0008 1.02828-.4094 2.01425-1.1364 2.74152-.7269.7273-1.7127 1.1364-2.741 1.1376z" fill="#d8ff33"/><path d="m66.2984 7.18729c-.925-.31254-1.765-.83503-2.4542-1.52651-.6892-.69149-1.209-1.5332-1.5185-2.45916-.1397-.42035-.4083-.78604-.7676-1.04519s-.791-.39862-1.234-.39862-.8747.13947-1.234.39862-.6278.62484-.7676 1.04519c-.3095.926-.8292 1.76774-1.5184 2.45924-.6893.6915-1.5293 1.21396-2.4543 1.52643-.4196.14026-.7844.40889-1.043.76791-.2585.35902-.3976.79024-.3976 1.23265 0 .44242.1391.87365.3976 1.23265.2586.359.6234.6277 1.043.7679.925.3124 1.765.8348 2.4543 1.5262.6892.6915 1.2089 1.5332 1.5184 2.4591.1398.4204.4083.7861.7676 1.0452.3593.2592.791.3986 1.234.3986s.8747-.1394 1.234-.3986c.3593-.2591.6279-.6248.7676-1.0452.3095-.9259.8292-1.7676 1.5185-2.459.6892-.6914 1.5292-1.2139 2.4542-1.5263.4196-.1402.7845-.4089 1.043-.7679s.3976-.79023.3976-1.23265c0-.44241-.1391-.87363-.3976-1.23265s-.6234-.62765-1.043-.76791z" fill="#50a6ea"/><path d="m83.6285 168.811c-.925-.312-1.765-.834-2.4542-1.526-.6893-.691-1.209-1.533-1.5185-2.459-.1398-.42-.4083-.786-.7676-1.045s-.791-.399-1.234-.399-.8747.14-1.234.399-.6279.625-.7676 1.045c-.3095.926-.8292 1.768-1.5184 2.459-.6893.692-1.5293 1.214-2.4543 1.526-.4196.141-.7845.409-1.043.768s-.3976.791-.3976 1.233.1391.874.3976 1.233.6234.627 1.043.768c.925.312 1.765.835 2.4543 1.526.6892.692 1.2089 1.533 1.5184 2.459.1397.421.4083.786.7676 1.045.3593.26.791.399 1.234.399s.8747-.139 1.234-.399c.3593-.259.6278-.624.7676-1.045.3095-.926.8292-1.767 1.5184-2.459.6893-.691 1.5293-1.214 2.4543-1.526.4196-.141.7844-.409 1.043-.768.2585-.359.3976-.791.3976-1.233s-.1391-.874-.3976-1.233c-.2586-.359-.6234-.627-1.043-.768z" fill="#50a6ea"/><path d="m172.398 150.421c-.925-.312-1.765-.835-2.454-1.526-.689-.692-1.209-1.533-1.519-2.459-.139-.421-.408-.786-.767-1.045-.36-.26-.791-.399-1.234-.399s-.875.139-1.234.399c-.36.259-.628.624-.768 1.045-.309.926-.829 1.767-1.518 2.459-.69.691-1.53 1.214-2.455 1.526-.419.14-.784.409-1.043.768-.258.359-.397.79-.397 1.233 0 .442.139.873.397 1.232.259.359.624.628 1.043.768.925.313 1.765.835 2.455 1.527.689.691 1.209 1.533 1.518 2.459.14.42.408.786.768 1.045.359.259.791.399 1.234.399s.874-.14 1.234-.399c.359-.259.628-.625.767-1.045.31-.926.83-1.768 1.519-2.459.689-.692 1.529-1.214 2.454-1.527.42-.14.784-.409 1.043-.768s.398-.79.398-1.232c0-.443-.139-.874-.398-1.233s-.623-.628-1.043-.768z" fill="#50a6ea"/><path d="m69.6206 138.32c-.439 0-.8671-.137-1.2248-.391-.3576-.255-.6269-.615-.7703-1.029-.1434-.415-.1538-.865-.0297-1.286s.3765-.793.722-1.064c.3311-.259.66-.519.9864-.78.2166-.172.4651-.301.7313-.377.2661-.077.5448-.101.8201-.07s.5417.116.7842.25c.2424.134.4561.315.6288.531.1727.217.3011.465.3778.731.0767.267.1002.545.0692.821-.031.275-.116.541-.25.784-.134.242-.3144.456-.531.629-.3361.268-.674.535-1.0139.802-.3707.291-.8286.449-1.3001.449z" fill="#d8ba3a"/><path d="m75.2077 133.723c-.4306 0-.8509-.132-1.2046-.377-.3537-.246-.6238-.594-.7739-.997-.1502-.404-.1733-.843-.0662-1.26.107-.417.3392-.792.6652-1.073 1.755-1.514 3.5019-3.094 5.1925-4.691.4066-.385.9491-.592 1.5084-.576s1.0894.253 1.4738.659c.3844.407.5915.949.5758 1.509-.0156.559-.2528 1.089-.6593 1.473-1.7371 1.643-3.5318 3.264-5.335 4.82-.3823.331-.8711.513-1.3767.513z" fill="#d8ba3a"/><path d="m84.9239 124.586c-.4151 0-.8211-.122-1.1669-.352-.3459-.229-.6163-.556-.7773-.939-.1611-.382-.2057-.804-.1282-1.212s.2737-.784.5639-1.08c3.357-3.435 6.6093-7.083 9.6679-10.843.3545-.429.8644-.701 1.4185-.756s1.1075.111 1.5394.462c.432.352.7075.86.7665 1.413.059.554-.1034 1.109-.4517 1.543-3.1391 3.859-6.4786 7.604-9.9246 11.129-.1962.202-.4306.361-.6895.47s-.537.165-.818.165z" fill="#d8ba3a"/></svg>