<svg fill="none" height="188" viewBox="0 0 188 188" width="188" xmlns="http://www.w3.org/2000/svg"><path d="m187.968 94c0-51.9154-42.077-94-93.9838-94-51.9054 0-93.9842 42.0846-93.9842 94 0 51.915 42.0788 94 93.9842 94 51.9068 0 93.9838-42.085 93.9838-94z" fill="#e89806"/><g fill="#fff"><path d="m99.9523 109.789h-11.9364c-2.3638 0-4.2801-1.916-4.2801-4.281v-54.0498c0-2.3652 1.9163-4.2814 4.2801-4.2814h11.9364c2.3637 0 4.2817 1.9162 4.2817 4.2814v54.0498c0 2.365-1.916 4.281-4.2817 4.281z"/><path d="m93.9841 143.866c-5.6599 0-10.2483-4.59-10.2483-10.25v-.003c0-5.66 4.5884-10.25 10.2483-10.25s10.2499 4.59 10.2499 10.25v.003c0 5.66-4.59 10.25-10.2499 10.25z"/></g></svg>