<svg width="180" height="180" viewBox="0 0 180 180" fill="none" xmlns="http://www.w3.org/2000/svg">
<g clip-path="url(#clip0)">
<path d="M132.274 84.4428C135.468 72.0284 135.018 54.7572 131.568 42.3091C130.626 38.912 131.584 35.2733 134.076 32.7807L136.813 30.0441C139.404 27.4528 139.596 23.2305 137.099 20.5488C134.477 17.7331 130.067 17.6741 127.37 20.3713L126.965 20.7755C124.003 23.7382 119.49 24.4733 115.726 22.6322C92.7503 11.3941 47.4479 12.4991 23.9041 23.6067C20.1772 25.3648 15.7482 24.5819 12.8345 21.6682L11.5379 20.3716C8.8984 17.7321 4.61918 17.7321 1.97965 20.3716C-0.659883 23.0111 -0.659883 27.2904 1.97965 29.9299L4.96652 32.9168C7.50445 35.4547 8.4375 39.1742 7.42605 42.6178C3.8352 54.8434 3.42914 71.9645 6.72891 84.1675C7.64332 87.5492 6.68145 91.1598 4.20434 93.6369L1.98 95.8612C-0.659531 98.5007 -0.659531 102.78 1.98 105.419C4.61953 108.059 8.89875 108.059 11.5383 105.419L12.3908 104.567C15.2248 101.733 19.5114 100.89 23.181 102.501C47.3055 113.096 92.8192 114.374 116.364 103.451C120.079 101.728 124.474 102.524 127.37 105.419C130.009 108.059 134.288 108.059 136.928 105.419C139.568 102.78 139.568 98.5007 136.928 95.8612L134.837 93.7698C132.396 91.3299 131.414 87.7844 132.274 84.4428Z" fill="#DCEAFF"/>
<path d="M136.927 95.8611C136.291 94.9291 130.521 91.2552 132.273 84.4427C135.386 72.3489 135.109 55.0267 131.547 42.2351C130.608 38.8665 131.603 35.2534 134.076 32.7806L136.812 30.0443C139.404 27.453 139.596 23.2307 137.098 20.5486C134.476 17.733 130.066 17.6739 127.369 20.3711L127.238 20.5019C127.254 20.5184 127.271 20.5321 127.286 20.5486C129.784 23.2304 129.592 27.4526 127.001 30.044L124.264 32.7806C121.77 35.2745 120.815 38.9157 121.757 42.3146C121.815 42.5238 121.872 42.734 121.928 42.946C124.546 52.8045 119.197 62.9425 109.708 66.6838C91.3438 73.925 77.8202 90.7775 75.334 111.043C90.8217 110.793 105.803 108.35 116.363 103.451C120.02 101.754 124.335 102.504 127.231 105.291C127.276 105.335 127.324 105.375 127.369 105.419C130.008 108.059 134.287 108.059 136.927 105.419C139.567 102.78 139.567 98.5006 136.927 95.8611Z" fill="#CADFFF"/>
<path d="M129.847 165.278C156.068 165.278 177.324 144.022 177.324 117.801C177.324 91.5796 156.068 70.3232 129.847 70.3232C103.626 70.3232 82.3691 91.5796 82.3691 117.801C82.3691 144.022 103.626 165.278 129.847 165.278Z" fill="#365E7D"/>
<path d="M129.847 70.3232C128.588 70.3232 127.341 70.3732 126.107 70.4695C150.58 72.3767 169.845 92.8384 169.845 117.801C169.845 142.763 150.58 163.225 126.107 165.132C127.341 165.229 128.588 165.279 129.847 165.279C156.068 165.279 177.324 144.022 177.324 117.801C177.324 91.5801 156.068 70.3232 129.847 70.3232Z" fill="#2B4D66"/>
<path d="M129.847 153.214C149.405 153.214 165.26 137.359 165.26 117.8C165.26 98.2423 149.405 82.3872 129.847 82.3872C110.289 82.3872 94.4336 98.2423 94.4336 117.8C94.4336 137.359 110.289 153.214 129.847 153.214Z" fill="#F4FBFF"/>
<path d="M129.847 82.3877C128.206 82.3877 126.592 82.502 125.011 82.7178C142.281 85.0764 155.588 99.8836 155.588 117.801C155.588 135.718 142.281 150.525 125.011 152.884C126.592 153.1 128.206 153.214 129.847 153.214C149.405 153.214 165.26 137.359 165.26 117.801C165.26 98.2425 149.405 82.3877 129.847 82.3877Z" fill="#DCEAFF"/>
<path d="M129.848 95.9617C128.37 95.9617 127.172 94.7639 127.172 93.2859V92.06C127.172 90.582 128.37 89.3843 129.848 89.3843C131.326 89.3843 132.524 90.582 132.524 92.06V93.2859C132.523 94.7639 131.326 95.9617 129.848 95.9617Z" fill="#365E7D"/>
<path d="M147.181 103.142C146.496 103.142 145.811 102.881 145.289 102.359C144.244 101.314 144.244 99.6193 145.289 98.5742L146.155 97.7072C147.201 96.6627 148.895 96.6627 149.94 97.7072C150.985 98.7524 150.985 100.447 149.94 101.492L149.073 102.359C148.551 102.881 147.865 103.142 147.181 103.142Z" fill="#365E7D"/>
<path d="M155.587 120.477H154.361C152.883 120.477 151.686 119.279 151.686 117.801C151.686 116.323 152.883 115.125 154.361 115.125H155.587C157.065 115.125 158.263 116.323 158.263 117.801C158.263 119.279 157.065 120.477 155.587 120.477Z" fill="#365E7D"/>
<path d="M105.333 120.477H104.107C102.629 120.477 101.431 119.279 101.431 117.801C101.431 116.323 102.628 115.125 104.107 115.125H105.333C106.811 115.125 108.009 116.323 108.009 117.801C108.009 119.279 106.811 120.477 105.333 120.477Z" fill="#365E7D"/>
<path d="M148.048 138.678C147.363 138.678 146.678 138.416 146.155 137.894L145.289 137.027C144.244 135.982 144.244 134.288 145.289 133.242C146.334 132.198 148.028 132.198 149.073 133.242L149.94 134.109C150.985 135.155 150.985 136.849 149.94 137.894C149.418 138.416 148.732 138.678 148.048 138.678Z" fill="#365E7D"/>
<path d="M129.848 146.217C128.37 146.217 127.172 145.019 127.172 143.541V142.315C127.172 140.837 128.37 139.639 129.848 139.639C131.326 139.639 132.524 140.837 132.524 142.315V143.541C132.523 145.019 131.326 146.217 129.848 146.217Z" fill="#365E7D"/>
<path d="M111.647 138.678C110.962 138.678 110.277 138.417 109.755 137.894C108.71 136.849 108.709 135.155 109.754 134.11L110.62 133.243C111.665 132.197 113.359 132.197 114.405 133.242C115.45 134.287 115.45 135.981 114.406 137.026L113.539 137.893C113.017 138.416 112.332 138.678 111.647 138.678Z" fill="#365E7D"/>
<path d="M112.513 103.142C111.828 103.142 111.143 102.881 110.62 102.358L109.754 101.491C108.709 100.446 108.71 98.7518 109.755 97.7069C110.8 96.6631 112.494 96.6621 113.539 97.708L114.406 98.5749C115.45 99.6198 115.45 101.314 114.405 102.359C113.883 102.881 113.198 103.142 112.513 103.142Z" fill="#365E7D"/>
<path d="M129.848 120.477C129.232 120.477 128.622 120.264 128.132 119.854L121.916 114.66C120.782 113.713 120.631 112.025 121.579 110.891C122.526 109.757 124.214 109.606 125.348 110.554L127.172 112.078V102.966C127.172 101.488 128.37 100.29 129.848 100.29C131.325 100.29 132.524 101.487 132.524 102.966V117.801C132.524 118.839 131.922 119.784 130.981 120.225C130.619 120.394 130.232 120.477 129.848 120.477Z" fill="#2B4D66"/>
<path d="M157.943 63.8684H150.425C149.43 63.8684 148.518 63.3168 148.056 62.4365C147.594 61.5565 147.657 60.492 148.222 59.6735L152.543 53.4076H150.615C149.137 53.4076 147.939 52.2099 147.939 50.7319C147.939 49.2539 149.136 48.0562 150.615 48.0562H157.639C158.633 48.0562 159.546 48.6078 160.008 49.4881C160.47 50.368 160.406 51.4326 159.841 52.251L155.521 58.5169H157.943C159.421 58.5169 160.619 59.7147 160.619 61.1926C160.619 62.6706 159.421 63.8684 157.943 63.8684Z" fill="#365E7D"/>
<path d="M177.324 55.571H167.31C166.315 55.571 165.403 55.0194 164.94 54.139C164.478 53.2591 164.542 52.1946 165.107 51.3761L171.823 41.6371H167.563C166.085 41.6371 164.887 40.4394 164.887 38.9614C164.887 37.4834 166.084 36.2856 167.563 36.2856H176.919C177.914 36.2856 178.826 36.8372 179.288 37.7176C179.75 38.5975 179.687 39.6621 179.122 40.4805L172.405 50.2195H177.323C178.801 50.2195 179.999 51.4173 179.999 52.8952C179.999 54.3732 178.802 55.571 177.324 55.571Z" fill="#365E7D"/>
</g>
<defs>
<clipPath id="clip0">
<rect width="180" height="180" fill="white"/>
</clipPath>
</defs>
</svg>
