<svg width="24" height="24" viewBox="0 0 24 24" fill="none" xmlns="http://www.w3.org/2000/svg">
<path d="M6.12505 13.4364H11.9866C12.5043 13.4364 12.9124 13.0359 12.9124 12.5106V4.90263C12.9124 4.38491 12.5043 3.98633 11.9866 3.98633C11.471 3.98633 11.0703 4.38491 11.0703 4.90263V11.5943H6.12505C5.59989 11.5943 5.19922 11.995 5.19922 12.5106C5.19922 13.0359 5.59989 13.4364 6.12505 13.4364Z" fill="#262626"/>
<path d="M11.9963 23.9926C18.5686 23.9926 23.9946 18.5591 23.9946 11.9963C23.9946 5.42396 18.5591 0 11.9868 0C5.42606 0 0 5.42396 0 11.9963C0 18.5591 5.43558 23.9926 11.9963 23.9926ZM11.9963 21.6295C6.65058 21.6295 2.37262 17.3419 2.37262 11.9963C2.37262 6.65058 6.64106 2.3631 11.9868 2.3631C17.3324 2.3631 21.6316 6.65058 21.6316 11.9963C21.6316 17.3419 17.3419 21.6295 11.9963 21.6295Z" fill="#262626"/>
</svg>
