<svg width="28" height="21" viewBox="0 0 28 21" fill="none" xmlns="http://www.w3.org/2000/svg">
<path d="M1.13459 9.85195V11.2486H11.955C11.2931 12.5812 9.23296 14.4776 7.70741 14.6745C7.07178 14.7689 6.71296 15.1545 6.71296 15.7381C6.71296 16.2938 7.14632 16.8248 7.87756 16.7163C9.61897 16.4351 12.2562 14.4893 13.017 12.187H13.0969V19.9109H14.6203V12.187H14.7119C15.4706 14.4893 18.1078 16.4351 19.8513 16.7163C20.5805 16.8248 21.0159 16.2938 21.0159 15.7381C21.0159 15.1545 20.6571 14.7689 20.0119 14.6745C18.4938 14.4776 16.4241 12.5812 15.7718 11.2486H26.494V9.85195H18.6152C19.9727 9.19242 20.8985 8.03062 20.8985 6.6321C20.8985 4.97179 19.6678 3.73265 18.0056 3.73265C16.6083 3.73265 15.3621 4.59304 14.6203 5.98547V0.430304H13.0969V5.98547C12.3647 4.59304 11.1206 3.73265 9.71366 3.73265C8.06108 3.73265 6.82077 4.97179 6.82077 6.6321C6.82077 8.03062 7.75406 9.19242 9.10195 9.85195H1.13459ZM12.5723 9.70359C10.4156 9.70359 8.57014 8.20382 8.57014 6.82007C8.57014 5.99272 9.07335 5.49585 9.85804 5.49585C11.4722 5.49585 12.8923 7.32187 12.8923 9.39656V9.70359H12.5723ZM15.1448 9.70359H14.827V9.39656C14.827 7.32187 16.245 5.49585 17.8591 5.49585C18.6556 5.49585 19.1491 5.99272 19.1491 6.82007C19.1491 8.20382 17.3133 9.70359 15.1448 9.70359ZM3.84421 20.2889H23.8826C26.4237 20.2889 27.7268 18.9933 27.7268 16.4927V3.81749C27.7268 1.31695 26.4237 0.0117188 23.8826 0.0117188H3.84421C1.31484 0.0117188 0 1.31695 0 3.81749V16.4927C0 18.9933 1.31484 20.2889 3.84421 20.2889ZM3.97733 17.993C2.88772 17.993 2.29592 17.4309 2.29592 16.2923V4.01999C2.29592 2.87928 2.88772 2.30764 3.97733 2.30764H23.7495C24.8199 2.30764 25.4309 2.87928 25.4309 4.01999V16.2923C25.4309 17.4309 24.8199 17.993 23.7495 17.993H3.97733Z" fill="#262626"/>
</svg>
