<svg width="150" height="150" viewBox="0 0 150 150" fill="none" xmlns="http://www.w3.org/2000/svg">
<path d="M110.384 115.81C109.875 116.317 109.259 116.699 108.54 116.961L107.814 117.179C107.814 117.179 9.97488 156.655 2.36723 149.02C-5.24042 141.384 34.5913 43.6893 34.5913 43.6893L34.8119 42.9646C35.0766 42.2463 35.4616 41.6313 35.9705 41.1243C42.0566 35.0601 63.6502 46.8619 84.1987 67.4854C104.747 88.109 116.47 109.746 110.384 115.81Z" fill="url(#paint0_linear_6282_24152)"/>
<path d="M104.297 118.582C99.1482 120.624 88.8382 124.665 76.6641 129.189C69.2182 131.957 61.0744 134.905 52.9876 137.684C45.9208 140.112 38.8964 142.416 32.4238 144.357C27.9767 140.619 23.5573 136.566 19.2276 132.221C14.8979 127.875 10.8608 123.441 7.13965 118.98C9.10406 112.515 11.4332 105.499 13.8876 98.4409C16.6955 90.3641 19.6735 82.2312 22.4685 74.7956C27.0367 62.6379 31.1158 52.3429 33.1761 47.2012C46.3038 54.32 60.3317 64.8479 73.5405 78.105C86.7496 91.3624 97.2264 105.429 104.297 118.582Z" fill="url(#paint1_linear_6282_24152)"/>
<path d="M110.384 115.809C109.876 116.318 109.258 116.698 108.539 116.962L107.815 117.178C107.815 117.178 106.55 117.688 104.297 118.582C99.1483 120.623 88.8383 124.665 76.6642 129.189C69.2183 131.957 61.0745 134.905 52.9877 137.683C45.9589 132.382 38.9139 126.258 32.0877 119.407C25.2616 112.556 19.1633 105.488 13.8875 98.4405C16.6954 90.3637 19.6733 82.2308 22.4683 74.7952C27.0366 62.6376 31.1157 52.3426 33.176 47.2008C34.0774 44.9517 34.5925 43.6887 34.5925 43.6887L34.8113 42.9646C35.078 42.2467 35.4607 41.6302 35.9713 41.1243C42.0577 35.0599 63.6492 46.8626 84.1992 67.4843C104.747 88.1099 116.47 109.744 110.384 115.809Z" fill="url(#paint2_linear_6282_24152)"/>
<path d="M110.384 115.808C109.876 116.317 109.258 116.698 108.539 116.962L107.815 117.178C107.815 117.178 106.55 117.688 104.297 118.581C99.1482 120.623 88.8382 124.665 76.6641 129.188C66.755 122.663 56.6044 114.393 46.8979 104.651C37.1915 94.9085 28.9582 84.7279 22.4685 74.7952C27.0367 62.6376 31.1159 52.3426 33.1762 47.2008C34.0776 44.9517 34.5926 43.6887 34.5926 43.6887L34.8115 42.9646C35.0782 42.2467 35.4609 41.6302 35.9714 41.1243C42.0579 35.0599 63.6494 46.8626 84.1994 67.4843C104.746 88.1096 116.47 109.744 110.384 115.808Z" fill="url(#paint3_linear_6282_24152)"/>
<path d="M110.384 115.81C104.296 121.875 82.703 110.074 62.1545 89.4499C41.6059 68.8261 29.8824 47.1905 35.9697 41.1249C42.0571 35.0593 63.6503 46.8614 84.1989 67.4852C104.747 88.109 116.471 109.745 110.384 115.81Z" fill="url(#paint4_linear_6282_24152)"/>
<path d="M106.59 110.251C102.093 114.732 83.8794 103.744 65.9097 85.7083C47.94 67.673 37.0182 49.4201 41.5153 44.9392C46.0123 40.4583 64.2256 51.4465 82.1953 69.4818C100.165 87.5171 111.087 105.77 106.59 110.251Z" fill="url(#paint5_linear_6282_24152)"/>
<path d="M110.384 115.809C116.471 109.745 104.748 88.1089 84.1987 67.4854C72.1496 55.3924 59.7428 46.3351 50.3123 42.1318C50.6805 42.8095 51.0914 43.4813 51.5505 44.1436C52.2967 45.2201 53.1702 46.2013 54.1537 47.086L59.3717 52.3401C58.7702 52.613 58.2176 52.8289 57.7528 52.9927C56.9208 53.286 56.4337 54.1465 56.6078 55.0113L58.4543 64.183C58.6176 64.9939 59.1864 65.6098 59.8973 65.8789L109.993 116.157C110.129 116.049 110.26 115.933 110.384 115.809Z" fill="url(#paint6_linear_6282_24152)"/>
<path d="M77.0749 87.3136L82.1991 93.4392L106.069 117.396C107.893 117.344 109.359 116.832 110.384 115.811C115.703 110.51 107.422 93.3204 91.5358 75.3057C86.5855 77.373 81.8664 80.0792 77.5085 83.4065C76.2773 84.346 76.0811 86.1257 77.0749 87.3136Z" fill="url(#paint7_linear_6282_24152)"/>
<path d="M82.1991 93.4388L77.075 87.3132C76.0811 86.1252 76.2773 84.3458 77.5082 83.4058C93.3885 71.2817 114.045 67.3438 133.336 72.8923C138.191 74.2885 142.841 76.2464 147.192 78.7249C148.539 79.4917 148.97 81.2302 148.143 82.5402L143.88 89.2935C143.107 90.5179 141.513 90.9179 140.25 90.2102C136.909 88.3391 133.347 86.8541 129.628 85.7847C114.542 81.4455 98.3947 84.4732 85.9185 93.8644C84.762 94.7346 83.1276 94.5488 82.1991 93.4388Z" fill="url(#paint8_linear_6282_24152)"/>
<path d="M37.9199 29.8447L33.2672 25.0574C31.1584 22.8874 30.5234 19.3944 31.7549 16.7386C33.1846 13.6547 36.6158 12.7509 39.3793 14.73C41.7596 16.4347 42.9278 19.7871 42.1617 22.7144L40.4717 29.1727C40.1731 30.3139 38.7422 30.6909 37.9199 29.8447Z" fill="url(#paint9_linear_6282_24152)"/>
<path d="M29.6902 35.0433L23.0837 34.0833C20.0893 33.6483 17.4569 31.2659 16.8146 28.4097C16.0687 25.0933 18.2381 22.2856 21.6352 22.1706C24.5611 22.0715 27.5305 24.0171 28.7072 26.805L31.3034 32.9553C31.7625 34.0421 30.8575 35.213 29.6902 35.0433Z" fill="url(#paint10_linear_6282_24152)"/>
<path d="M118.144 111.838L124.792 111.237C127.806 110.964 130.92 112.669 132.208 115.298C133.704 118.35 132.247 121.585 128.97 122.487C126.147 123.263 122.807 122.061 121.014 119.623L117.06 114.244C116.361 113.294 116.969 111.944 118.144 111.838Z" fill="url(#paint11_linear_6282_24152)"/>
<path d="M119.284 102.171L124.189 97.6418C126.412 95.5889 129.92 95.0433 132.544 96.3418C135.59 97.8498 136.406 101.303 134.357 104.015C132.592 106.351 129.211 107.434 126.304 106.593L119.891 104.739C118.758 104.412 118.418 102.971 119.284 102.171Z" fill="url(#paint12_linear_6282_24152)"/>
<path d="M61.3996 65.9186C60.0987 66.338 58.724 65.5233 58.4543 64.1833L56.6078 55.0116C56.4337 54.1465 56.9208 53.2863 57.7528 52.993C58.7252 52.6504 60.0764 52.0866 61.4731 51.2277C57.2546 49.8351 53.822 47.4204 51.5508 44.1439C47.269 37.9665 46.9334 31.0036 50.6525 25.518C54.3328 20.0898 61.1331 17.4416 67.5758 18.9289C74.619 20.5548 79.5664 26.7174 80.8099 35.4145C80.8617 35.7766 80.9076 36.1368 80.9473 36.4957C82.6752 35.4833 84.0714 34.2345 84.9458 32.8366C87.1593 29.2986 87.3693 24.0186 85.4817 19.3854C84.2834 16.4448 82.4337 14.196 80.3476 13.0648C79.417 12.5604 78.9211 11.5136 79.1705 10.4851L81.2858 1.76243C81.6099 0.426551 83.0328 -0.342272 84.3167 0.149493C90.237 2.41685 95.1081 7.45949 97.9049 14.323C101.42 22.9489 100.812 32.7689 96.3187 39.9513C92.7637 45.6336 86.2073 49.8721 78.6261 51.6639C76.9231 55.2245 74.3746 58.3524 71.032 60.9151C67.4625 63.651 63.7646 65.1563 61.3996 65.9186ZM64.029 31.9413C63.1517 31.9398 62.2096 32.3766 61.7561 33.046C61.0784 34.0454 61.979 35.6404 62.5761 36.5018C63.3949 37.6833 65.3014 38.5648 67.7028 38.9595C67.6681 38.4248 67.6105 37.8763 67.5299 37.3133C67.1014 34.3168 65.9905 32.3307 64.5581 32.0001C64.3878 31.9607 64.2099 31.9416 64.029 31.9413Z" fill="url(#paint13_radial_6282_24152)"/>
<path d="M90.5633 46.146L80.9474 36.4951C80.9474 36.4951 81.5616 45.8139 78.626 51.6637C83.0969 50.6072 87.2107 48.6989 90.5633 46.146Z" fill="url(#paint14_linear_6282_24152)"/>
<path d="M62.5762 36.5021C62.1388 35.8709 61.5412 34.8471 61.5177 33.9512L48.0847 33.9268C48.1056 37.3271 49.2659 40.8473 51.5509 44.1441C53.8221 47.4209 57.2544 49.8356 61.4732 51.2279C61.4732 51.2279 68.3579 49.1394 67.7032 38.9597C65.3015 38.565 63.395 37.6835 62.5762 36.5021Z" fill="url(#paint15_linear_6282_24152)"/>
<path d="M91.0609 67.0527C87.9427 69.0848 85.2818 71.7615 83.2671 74.8927C82.8138 75.5968 81.7683 75.5951 81.3177 74.8892C79.3141 71.7506 76.6636 69.0642 73.5524 67.0206C72.8618 66.5671 72.8638 65.5356 73.5559 65.0848C76.6741 63.0527 79.3347 60.3759 81.3497 57.2448C81.8027 56.5406 82.8486 56.5424 83.2991 57.2483C85.3027 60.3868 87.9535 63.0733 91.0644 65.1168C91.755 65.5703 91.753 66.6018 91.0609 67.0527Z" fill="url(#paint16_linear_6282_24152)"/>
<path d="M148.078 62.9531C144.96 64.9852 142.299 67.6619 140.284 70.7931C139.831 71.4972 138.786 71.4955 138.335 70.7896C136.331 67.651 133.681 64.9646 130.57 62.921C129.879 62.4675 129.881 61.436 130.573 60.9852C133.691 58.9531 136.352 56.2763 138.367 53.1452C138.82 52.441 139.866 52.4428 140.316 53.1487C142.32 56.2872 144.971 58.9737 148.082 61.0172C148.772 61.4704 148.77 62.5019 148.078 62.9531Z" fill="url(#paint17_linear_6282_24152)"/>
<path d="M121.377 17.4131C118.258 19.4451 115.597 22.1219 113.583 25.2531C113.13 25.9572 112.084 25.9554 111.633 25.2495C109.63 22.111 106.979 19.4245 103.868 17.381C103.177 16.9275 103.18 15.896 103.872 15.4451C106.99 13.4131 109.65 10.7363 111.665 7.60511C112.118 6.90099 113.164 6.90276 113.615 7.60864C115.618 10.7472 118.269 13.4336 121.38 15.4772C122.071 15.9307 122.069 16.9622 121.377 17.4131Z" fill="url(#paint18_linear_6282_24152)"/>
<path d="M118.487 48.8161C116.214 50.2976 114.274 52.2487 112.805 54.5311C112.475 55.0443 111.713 55.0429 111.384 54.5284C109.924 52.2405 107.992 50.2823 105.724 48.7926C105.221 48.462 105.222 47.7102 105.726 47.3814C108 45.8999 109.939 43.9487 111.408 41.6664C111.738 41.1531 112.501 41.1543 112.829 41.669C114.289 43.957 116.222 45.9152 118.489 47.4049C118.993 47.7355 118.991 48.4873 118.487 48.8161Z" fill="url(#paint19_linear_6282_24152)"/>
<path d="M127.745 31.1725C125.472 32.654 123.532 34.6052 122.064 36.8875C121.733 37.4008 120.971 37.3993 120.643 36.8849C119.182 34.5969 117.25 32.6387 114.982 31.149C114.479 30.8184 114.48 30.0667 114.985 29.7378C117.258 28.2564 119.197 26.3052 120.666 24.0228C120.997 23.5096 121.759 23.5108 122.087 24.0255C123.548 26.3134 125.48 28.2717 127.748 29.7614C128.251 30.0919 128.249 30.8437 127.745 31.1725Z" fill="url(#paint20_linear_6282_24152)"/>
<defs>
<linearGradient id="paint0_linear_6282_24152" x1="20.7315" y1="73.3768" x2="64.2686" y2="136.032" gradientUnits="userSpaceOnUse">
<stop stop-color="#FFE548"/>
<stop offset="0.1758" stop-color="#FFDE50"/>
<stop offset="0.4446" stop-color="#FFCA65"/>
<stop offset="0.7709" stop-color="#FFAA87"/>
<stop offset="1" stop-color="#FF90A4"/>
</linearGradient>
<linearGradient id="paint1_linear_6282_24152" x1="54.6452" y1="122.495" x2="46.2392" y2="152.09" gradientUnits="userSpaceOnUse">
<stop stop-color="#FBA5C2" stop-opacity="0"/>
<stop offset="0.3857" stop-color="#FCA0BA" stop-opacity="0.386"/>
<stop offset="0.9737" stop-color="#FF91A5" stop-opacity="0.974"/>
<stop offset="1" stop-color="#FF90A4"/>
</linearGradient>
<linearGradient id="paint2_linear_6282_24152" x1="63.0901" y1="104.843" x2="52.681" y2="142.186" gradientUnits="userSpaceOnUse">
<stop stop-color="#FBA5C2" stop-opacity="0"/>
<stop offset="0.3857" stop-color="#FCA0BA" stop-opacity="0.386"/>
<stop offset="0.9737" stop-color="#FF91A5" stop-opacity="0.974"/>
<stop offset="1" stop-color="#FF90A4"/>
</linearGradient>
<linearGradient id="paint3_linear_6282_24152" x1="70.002" y1="84.562" x2="56.999" y2="127.066" gradientUnits="userSpaceOnUse">
<stop stop-color="#FBA5C2" stop-opacity="0"/>
<stop offset="0.3857" stop-color="#FCA0BA" stop-opacity="0.386"/>
<stop offset="0.9737" stop-color="#FF91A5" stop-opacity="0.974"/>
<stop offset="1" stop-color="#FF90A4"/>
</linearGradient>
<linearGradient id="paint4_linear_6282_24152" x1="77.3995" y1="68.9529" x2="63.6246" y2="99.929" gradientUnits="userSpaceOnUse">
<stop stop-color="#FFE548"/>
<stop offset="0.1758" stop-color="#FFDE50"/>
<stop offset="0.4446" stop-color="#FFCA65"/>
<stop offset="0.7709" stop-color="#FFAA87"/>
<stop offset="1" stop-color="#FF90A4"/>
</linearGradient>
<linearGradient id="paint5_linear_6282_24152" x1="64.4076" y1="92.3607" x2="83.8442" y2="62.5888" gradientUnits="userSpaceOnUse">
<stop stop-color="#FFD00D" stop-opacity="0"/>
<stop offset="1" stop-color="#DB722B"/>
</linearGradient>
<linearGradient id="paint6_linear_6282_24152" x1="82.4137" y1="79.3049" x2="70.2659" y2="42.0169" gradientUnits="userSpaceOnUse">
<stop stop-color="#FFD00D" stop-opacity="0"/>
<stop offset="1" stop-color="#DB722B"/>
</linearGradient>
<linearGradient id="paint7_linear_6282_24152" x1="96.8518" y1="99.8738" x2="87.0463" y2="83.7562" gradientUnits="userSpaceOnUse">
<stop stop-color="#A34A9E" stop-opacity="0"/>
<stop offset="1" stop-color="#343168"/>
</linearGradient>
<linearGradient id="paint8_linear_6282_24152" x1="112.289" y1="94.8344" x2="112.736" y2="70.2616" gradientUnits="userSpaceOnUse">
<stop stop-color="#A34A9E"/>
<stop offset="1" stop-color="#343168"/>
</linearGradient>
<linearGradient id="paint9_linear_6282_24152" x1="35.5473" y1="20.9426" x2="40.949" y2="23.2932" gradientUnits="userSpaceOnUse">
<stop stop-color="#3FA9F5"/>
<stop offset="1" stop-color="#666AD6"/>
</linearGradient>
<linearGradient id="paint10_linear_6282_24152" x1="22.5098" y1="29.3777" x2="28.2219" y2="27.9506" gradientUnits="userSpaceOnUse">
<stop stop-color="#A34A9E"/>
<stop offset="1" stop-color="#343168"/>
</linearGradient>
<linearGradient id="paint11_linear_6282_24152" x1="126.024" y1="115.725" x2="111.896" y2="124.242" gradientUnits="userSpaceOnUse">
<stop stop-color="#FF4974"/>
<stop offset="0.4497" stop-color="#FE4773"/>
<stop offset="0.6292" stop-color="#FC406D"/>
<stop offset="0.7605" stop-color="#F73464"/>
<stop offset="0.8683" stop-color="#F12257"/>
<stop offset="0.9606" stop-color="#E80C46"/>
<stop offset="1" stop-color="#E4003D"/>
</linearGradient>
<linearGradient id="paint12_linear_6282_24152" x1="128.569" y1="98.2193" x2="121.973" y2="117.086" gradientUnits="userSpaceOnUse">
<stop stop-color="#C4F8B6"/>
<stop offset="1" stop-color="#3B8EAC"/>
</linearGradient>
<radialGradient id="paint13_radial_6282_24152" cx="0" cy="0" r="1" gradientUnits="userSpaceOnUse" gradientTransform="translate(50.1361 10.9709) rotate(0.114591) scale(59.0466)">
<stop stop-color="#FF4974"/>
<stop offset="0.4497" stop-color="#FE4773"/>
<stop offset="0.6292" stop-color="#FC406D"/>
<stop offset="0.7605" stop-color="#F73464"/>
<stop offset="0.8683" stop-color="#F12257"/>
<stop offset="0.9606" stop-color="#E80C46"/>
<stop offset="1" stop-color="#E4003D"/>
</radialGradient>
<linearGradient id="paint14_linear_6282_24152" x1="92.1867" y1="53.0691" x2="70.9027" y2="37.6738" gradientUnits="userSpaceOnUse">
<stop stop-color="#E4003D" stop-opacity="0"/>
<stop offset="0.3434" stop-color="#CD0E2D" stop-opacity="0.343"/>
<stop offset="1" stop-color="#972E07"/>
</linearGradient>
<linearGradient id="paint15_linear_6282_24152" x1="59.8846" y1="42.0755" x2="65.836" y2="47.6024" gradientUnits="userSpaceOnUse">
<stop stop-color="#E4003D" stop-opacity="0"/>
<stop offset="0.3434" stop-color="#CD0E2D" stop-opacity="0.343"/>
<stop offset="1" stop-color="#972E07"/>
</linearGradient>
<linearGradient id="paint16_linear_6282_24152" x1="79.2739" y1="62.037" x2="89.0853" y2="75.1735" gradientUnits="userSpaceOnUse">
<stop stop-color="#3FA9F5"/>
<stop offset="1" stop-color="#666AD6"/>
</linearGradient>
<linearGradient id="paint17_linear_6282_24152" x1="136.292" y1="57.9473" x2="146.103" y2="71.0838" gradientUnits="userSpaceOnUse">
<stop stop-color="#3FA9F5"/>
<stop offset="1" stop-color="#666AD6"/>
</linearGradient>
<linearGradient id="paint18_linear_6282_24152" x1="109.599" y1="12.4028" x2="119.41" y2="25.5393" gradientUnits="userSpaceOnUse">
<stop stop-color="#A34A9E"/>
<stop offset="1" stop-color="#343168"/>
</linearGradient>
<linearGradient id="paint19_linear_6282_24152" x1="109.895" y1="45.1693" x2="117.047" y2="54.7454" gradientUnits="userSpaceOnUse">
<stop stop-color="#C4F8B6"/>
<stop offset="1" stop-color="#3B8EAC"/>
</linearGradient>
<linearGradient id="paint20_linear_6282_24152" x1="119.156" y1="27.5271" x2="126.308" y2="37.1032" gradientUnits="userSpaceOnUse">
<stop stop-color="#FFE548"/>
<stop offset="0.1758" stop-color="#FFDE50"/>
<stop offset="0.4446" stop-color="#FFCA65"/>
<stop offset="0.7709" stop-color="#FFAA87"/>
<stop offset="1" stop-color="#FF90A4"/>
</linearGradient>
</defs>
</svg>
