<svg width="24" height="24" viewBox="0 0 24 24" fill="none" xmlns="http://www.w3.org/2000/svg">
<g clip-path="url(#clip0_13649_46328)">
<path d="M10.6914 23.999C10.4972 23.999 10.3398 23.8416 10.3398 23.6475V19.2109C10.3398 19.0168 10.4972 18.8594 10.6914 18.8594C10.8856 18.8594 11.043 19.0168 11.043 19.2109V23.6475C11.043 23.8416 10.8856 23.999 10.6914 23.999Z" fill="#16342E"/>
<path d="M10.9081 20.1052H10.473C10.1404 20.1052 9.90515 19.78 10.0093 19.4642L10.3865 18.3203H10.9947L11.3719 19.4642C11.476 19.78 11.2408 20.1052 10.9081 20.1052Z" fill="#FF00E5"/>
<path d="M14.8537 12.5098C14.8537 15.3395 12.9898 18.5793 10.6905 18.5793C8.39123 18.5793 6.52734 15.3395 6.52734 12.5098C6.52734 9.68006 8.39123 8.33203 10.6905 8.33203C12.9898 8.33203 14.8537 9.68006 14.8537 12.5098Z" fill="#FF00E5"/>
<path d="M10.6914 8.33203C10.369 8.33203 10.0552 8.35856 9.75391 8.41195C11.6017 8.73923 12.9796 10.0769 12.9796 12.5098C12.9796 14.9428 11.6017 17.6789 9.75391 18.3983C10.0552 18.5156 10.369 18.5794 10.6914 18.5794C12.9907 18.5794 14.8546 15.3395 14.8546 12.5098C14.8546 9.68006 12.9906 8.33203 10.6914 8.33203Z" fill="#BA00A7"/>
<path d="M4.50673 24C4.31258 24 4.15517 23.8426 4.15517 23.6484C4.15517 23.3585 4.05303 23.0965 3.94494 22.8191C3.75945 22.3434 3.54931 21.8043 3.85986 21.1003C3.97292 20.844 4.12156 20.6363 4.25272 20.4529C4.45592 20.1689 4.61778 19.9427 4.62776 19.5965C4.62669 19.5853 4.62608 19.5739 4.62608 19.5623C4.62608 19.1967 4.46033 18.965 4.25056 18.6718C4.11941 18.4885 3.97077 18.2807 3.8577 18.0244C3.54716 17.3204 3.7573 16.7812 3.94278 16.3056C4.05092 16.0282 4.15302 15.7662 4.15302 15.4763V13.3594C4.15302 13.1652 4.31042 13.0078 4.50458 13.0078C4.69873 13.0078 4.85614 13.1652 4.85614 13.3594V15.4763C4.85614 15.8985 4.71894 16.2504 4.59786 16.561C4.42977 16.9922 4.30827 17.3038 4.50097 17.7406C4.58478 17.9306 4.70019 18.0919 4.82234 18.2627C5.05409 18.5866 5.31603 18.9527 5.32869 19.5195C5.33042 19.5335 5.33131 19.5478 5.33131 19.5624C5.33131 20.1537 5.06206 20.5301 4.82445 20.8621C4.7023 21.0329 4.58689 21.1942 4.50308 21.3841C4.31037 21.821 4.43183 22.1325 4.59997 22.5638C4.72105 22.8743 4.85825 23.2263 4.85825 23.6485C4.8583 23.8426 4.70089 24 4.50673 24ZM5.3292 19.5624H5.32967H5.3292Z" fill="#16342E"/>
<path d="M4.73235 13.988H4.29725C3.96463 13.988 3.72936 13.6628 3.83352 13.347L4.21072 12.2031H4.81893L5.19613 13.347C5.30024 13.6628 5.06497 13.988 4.73235 13.988Z" fill="#00A9CE"/>
<path d="M8.67788 6.39258C8.67788 9.22228 6.81398 12.4621 4.51472 12.4621C2.21545 12.4621 0.351562 9.22228 0.351562 6.39258C0.351562 3.56288 2.21545 2.21484 4.51472 2.21484C6.81398 2.21484 8.67788 3.56288 8.67788 6.39258Z" fill="#25CDEC"/>
<path d="M4.51562 2.21484C4.19327 2.21484 3.87944 2.24138 3.57812 2.29477C5.42589 2.62205 6.80378 3.95967 6.80378 6.39263C6.80378 8.82558 5.42589 11.5617 3.57812 12.2811C3.87944 12.3984 4.19327 12.4622 4.51562 12.4622C6.81489 12.4622 8.67878 9.22233 8.67878 6.39263C8.67878 3.56292 6.81489 2.21484 4.51562 2.21484Z" fill="#0BC5E8"/>
<path d="M19.4844 24C19.2902 24 19.1328 23.8426 19.1328 23.6484V22.2749C19.1328 21.9849 19.0307 21.723 18.9226 21.4456C18.7372 20.9699 18.527 20.4308 18.8375 19.7268C18.9506 19.4704 19.0992 19.2627 19.2304 19.0793C19.4402 18.7861 19.6059 18.5545 19.6059 18.1888C19.6059 17.8244 19.436 17.584 19.2209 17.2798C19.0721 17.0693 18.9034 16.8307 18.7913 16.5324C18.5608 15.9198 18.721 15.5231 18.8758 15.1395C19.0022 14.8265 19.1328 14.5028 19.1328 13.9465V11.2969C19.1328 11.1027 19.2902 10.9453 19.4844 10.9453C19.6786 10.9453 19.836 11.1027 19.836 11.2969V13.9465C19.836 14.6394 19.6651 15.0627 19.5278 15.4028C19.3864 15.753 19.3154 15.9289 19.4493 16.285C19.5297 16.4987 19.6585 16.6809 19.795 16.8739C20.0359 17.2147 20.309 17.601 20.309 18.1889C20.309 18.7802 20.0397 19.1565 19.8022 19.4886C19.68 19.6593 19.5646 19.8206 19.4807 20.0106C19.288 20.4474 19.4095 20.759 19.5776 21.1903C19.6987 21.5008 19.8359 21.8528 19.8359 22.275V23.6484C19.836 23.8426 19.6786 24 19.4844 24Z" fill="#16342E"/>
<path d="M19.7089 12.0349H19.2738C18.9412 12.0349 18.7059 11.7096 18.8101 11.3938L19.1873 10.25H19.7955L20.1727 11.3938C20.2768 11.7097 20.0415 12.0349 19.7089 12.0349Z" fill="#AD6BFF"/>
<path d="M23.6466 4.5293C23.6466 7.359 21.7827 10.5989 19.4835 10.5989C17.1842 10.5989 15.3203 7.359 15.3203 4.5293C15.3203 1.69959 17.1842 0.351562 19.4835 0.351562C21.7827 0.351562 23.6466 1.69959 23.6466 4.5293Z" fill="#C89CFF"/>
<path d="M19.4844 0.351562C19.162 0.351562 18.8482 0.378094 18.5469 0.431484C20.3946 0.758766 21.7725 2.09639 21.7725 4.52934C21.7725 6.9623 20.3946 9.69839 18.5469 10.4178C18.8482 10.5352 19.162 10.5989 19.4844 10.5989C21.7836 10.5989 23.6475 7.35905 23.6475 4.52934C23.6475 1.69959 21.7836 0.351562 19.4844 0.351562Z" fill="#C18FFF"/>
<path d="M12.9119 10.1484C12.5798 9.84382 12.1585 9.629 11.66 9.50975C11.471 9.46451 11.2815 9.58104 11.2363 9.7699C11.1911 9.95876 11.3076 10.1484 11.4964 10.1936C11.8774 10.2847 12.1937 10.4438 12.4367 10.6666C12.6767 10.8867 12.852 11.1808 12.9576 11.5409C13.0026 11.6942 13.1428 11.7936 13.2948 11.7936C13.3276 11.7936 13.3609 11.7889 13.3939 11.7793C13.5802 11.7246 13.6869 11.5293 13.6323 11.3429C13.4901 10.8582 13.2477 10.4562 12.9119 10.1484Z" fill="#FF6FF1"/>
<path d="M6.73614 4.03112C6.40403 3.72662 5.98281 3.51174 5.4842 3.39254C5.29534 3.34735 5.10568 3.46389 5.0605 3.6527C5.01535 3.84156 5.13184 4.03121 5.32065 4.0764C5.7016 4.16748 6.01796 4.32662 6.26096 4.54942C6.50092 4.7694 6.67618 5.06359 6.78189 5.42373C6.82684 5.57701 6.96704 5.67639 7.11906 5.67639C7.15182 5.67639 7.1852 5.67174 7.2182 5.66204C7.40453 5.60734 7.51121 5.41201 7.45651 5.22573C7.31425 4.74085 7.07185 4.33895 6.73614 4.03112Z" fill="#00A9CE"/>
<path d="M22.4253 3.36242C22.283 2.87764 22.0407 2.47569 21.7049 2.16781C21.3727 1.86331 20.9515 1.64844 20.4529 1.52923C20.264 1.48414 20.0744 1.60053 20.0292 1.78939C19.9841 1.97825 20.1006 2.1679 20.2894 2.21309C20.6704 2.30417 20.9867 2.46331 21.2297 2.68606C21.4697 2.90614 21.645 3.20028 21.7506 3.56042C21.7956 3.7137 21.9358 3.81308 22.0878 3.81308C22.1206 3.81308 22.1539 3.80844 22.1869 3.79878C22.3732 3.74408 22.48 3.54875 22.4253 3.36242Z" fill="#AD6BFF"/>
<path d="M6.32789 0.703125C6.78033 0.703125 6.78108 0 6.32789 0C5.87545 0 5.8747 0.703125 6.32789 0.703125Z" fill="#FDBC00"/>
<path d="M13.9177 1.38281C14.3702 1.38281 14.3709 0.679688 13.9177 0.679688C13.4653 0.679688 13.4645 1.38281 13.9177 1.38281Z" fill="#FDBC00"/>
<path d="M12.4373 6.72656C12.8897 6.72656 12.8905 6.02344 12.4373 6.02344C11.9848 6.02344 11.9841 6.72656 12.4373 6.72656Z" fill="#FDBC00"/>
<path d="M16.7341 14.3398C17.1866 14.3398 17.1873 13.6367 16.7341 13.6367C16.2817 13.6367 16.281 14.3398 16.7341 14.3398Z" fill="#FDBC00"/>
<path d="M0.339609 13.0156C0.792047 13.0156 0.792797 12.3125 0.339609 12.3125C-0.112828 12.3125 -0.113578 13.0156 0.339609 13.0156Z" fill="#FDBC00"/>
<path d="M0.351328 24C0.803766 24 0.804516 23.2969 0.351328 23.2969C-0.101109 23.2969 -0.101859 24 0.351328 24Z" fill="#FDBC00"/>
<path d="M1.99195 16.3828C2.44439 16.3828 2.44514 15.6797 1.99195 15.6797C1.53952 15.6797 1.53877 16.3828 1.99195 16.3828Z" fill="#FDBC00"/>
<path d="M22.7302 19.8242C23.1826 19.8242 23.1834 19.1211 22.7302 19.1211C22.2778 19.1211 22.2771 19.8242 22.7302 19.8242Z" fill="#FDBC00"/>
<path d="M21.8123 16.4766C22.2647 16.4766 22.2655 15.7734 21.8123 15.7734C21.3598 15.7734 21.3591 16.4766 21.8123 16.4766Z" fill="#FDBC00"/>
<path d="M7.26539 22.6953C7.71783 22.6953 7.71858 21.9922 7.26539 21.9922C6.81295 21.9922 6.8122 22.6953 7.26539 22.6953Z" fill="#FDBC00"/>
<path d="M1.51879 0.102973C1.38149 -0.0343242 1.15888 -0.0343242 1.02163 0.102973L0.102973 1.02163C-0.0343242 1.15893 -0.0343242 1.38154 0.102973 1.51879C0.171598 1.58741 0.261598 1.62177 0.351551 1.62177C0.441504 1.62177 0.531504 1.58746 0.600129 1.51879L1.51879 0.600129C1.65608 0.462879 1.65608 0.24027 1.51879 0.102973Z" fill="#50D9B2"/>
<path d="M10.7603 2.14594C10.623 2.00864 10.4004 2.00864 10.2631 2.14594C10.1258 2.28324 10.1258 2.50585 10.2631 2.6431L11.1818 3.56175C11.2504 3.63038 11.3404 3.66474 11.4304 3.66474C11.5203 3.66474 11.6103 3.63043 11.6789 3.56175C11.8162 3.42446 11.8162 3.20185 11.6789 3.0646L10.7603 2.14594Z" fill="#FF6381"/>
<path d="M16.0568 18.142L15.1381 19.0607C15.0008 19.198 15.0008 19.4206 15.1381 19.5578C15.2068 19.6265 15.2968 19.6608 15.3867 19.6608C15.4767 19.6608 15.5667 19.6265 15.6353 19.5578L16.5539 18.6392C16.6912 18.5019 16.6912 18.2793 16.5539 18.142C16.4166 18.0047 16.194 18.0047 16.0568 18.142Z" fill="#50D9B2"/>
<path d="M1.5181 19.2241C1.3808 19.0868 1.15819 19.0868 1.02094 19.2241C0.883645 19.3614 0.883645 19.584 1.02094 19.7212L1.9396 20.6399C2.00822 20.7085 2.09822 20.7429 2.18818 20.7429C2.27813 20.7429 2.36813 20.7086 2.43675 20.6399C2.57405 20.5026 2.57405 20.28 2.43675 20.1427L1.5181 19.2241Z" fill="#50D9B2"/>
<path d="M22.0572 22.4819C21.9199 22.3446 21.6973 22.3446 21.56 22.4819C21.4227 22.6192 21.4227 22.8418 21.56 22.979L22.4787 23.8977C22.5473 23.9663 22.6373 24.0007 22.7272 24.0007C22.8172 24.0007 22.9072 23.9664 22.9758 23.8977C23.1131 23.7604 23.1131 23.5378 22.9758 23.4005L22.0572 22.4819Z" fill="#50D9B2"/>
<path d="M23.8977 11.6147C23.7604 11.4774 23.5378 11.4774 23.4005 11.6147L22.4819 12.5333C22.3446 12.6706 22.3446 12.8933 22.4819 13.0305C22.5505 13.0991 22.6405 13.1335 22.7305 13.1335C22.8204 13.1335 22.9104 13.0992 22.979 13.0305L23.8977 12.1118C24.035 11.9746 24.035 11.752 23.8977 11.6147Z" fill="#FF6381"/>
<path d="M13.7056 22.4819C13.5683 22.3446 13.3457 22.3446 13.2084 22.4819C13.0711 22.6192 13.0711 22.8418 13.2084 22.979L14.1271 23.8977C14.1957 23.9663 14.2857 24.0007 14.3757 24.0007C14.4656 24.0007 14.5556 23.9664 14.6243 23.8977C14.7615 23.7604 14.7615 23.5378 14.6243 23.4005L13.7056 22.4819Z" fill="#FF6381"/>
</g>
<defs>
<clipPath id="clip0_13649_46328">
<rect width="24" height="24" fill="white"/>
</clipPath>
</defs>
</svg>
