<svg width="32" height="32" viewBox="0 0 32 32" fill="none" xmlns="http://www.w3.org/2000/svg">
<path d="M8.82699 0H23.1718C24.3906 0 25.3787 0.988063 25.3787 2.20688V29.7931C25.3787 31.0119 24.3906 32 23.1718 32H8.82699C7.60818 32 6.62012 31.0119 6.62012 29.7931V2.20688C6.62012 0.988063 7.60818 0 8.82699 0Z" fill="#35495E"/>
<path d="M23.7222 2.20605V6.06811H8.27393V2.20605C8.27486 1.90173 8.5213 1.65523 8.82568 1.6543H10.6353C10.8734 1.65605 11.0841 1.80905 11.1594 2.03498L11.3305 2.55361C11.4817 3.00423 11.9034 3.3083 12.3787 3.30948H19.6174C20.0927 3.3083 20.5144 3.00423 20.6656 2.55361L20.8367 2.03498C20.912 1.80905 21.1227 1.65605 21.3608 1.6543H23.1704C23.4748 1.65523 23.7213 1.90173 23.7222 2.20605Z" fill="#B0D3F0"/>
<path d="M23.723 24.8271V29.7926C23.722 30.097 23.4756 30.3435 23.1712 30.3444H8.82641C8.5221 30.3435 8.2756 30.097 8.27466 29.7926V24.8271H23.723Z" fill="#B0D3F0"/>
<path d="M23.7241 6.06934H8.27588V24.828H23.7241V6.06934Z" fill="#90BAE1"/>
<path d="M18.7587 2.20693C18.612 2.20837 18.4708 2.15068 18.3671 2.04693C18.2633 1.94318 18.2056 1.80199 18.2071 1.65524C18.2091 1.50918 18.2662 1.36924 18.3671 1.26349C18.5882 1.0593 18.9292 1.0593 19.1504 1.26349C19.3638 1.48106 19.3638 1.82937 19.1504 2.04687C19.0446 2.14756 18.9047 2.20474 18.7587 2.20693Z" fill="#A5A5A4"/>
<path d="M10.4824 26.4834H11.5859C11.8905 26.4834 12.1376 26.7304 12.1376 27.0351V28.1386C12.1376 28.4433 11.8906 28.6903 11.5859 28.6903H10.4824C10.1777 28.6903 9.93066 28.4433 9.93066 28.1386V27.0351C9.93073 26.7304 10.1777 26.4834 10.4824 26.4834Z" fill="#14A085"/>
<path d="M13.792 26.4834H14.8954C15.2001 26.4834 15.4472 26.7304 15.4472 27.0351V28.1386C15.4472 28.4433 15.2002 28.6903 14.8954 28.6903H13.792C13.4873 28.6903 13.2402 28.4433 13.2402 28.1386V27.0351C13.2402 26.7304 13.4872 26.4834 13.792 26.4834Z" fill="#4482C3"/>
<path d="M17.1025 26.4834H18.206C18.5107 26.4834 18.7577 26.7304 18.7577 27.0351V28.1386C18.7577 28.4433 18.5107 28.6903 18.206 28.6903H17.1025C16.7978 28.6903 16.5508 28.4433 16.5508 28.1386V27.0351C16.5508 26.7304 16.7978 26.4834 17.1025 26.4834Z" fill="#14A085"/>
<path d="M20.4138 26.4834H21.5172C21.8219 26.4834 22.069 26.7304 22.069 27.0351V28.1386C22.069 28.4433 21.822 28.6903 21.5172 28.6903H20.4138C20.1091 28.6903 19.8621 28.4433 19.8621 28.1386V27.0351C19.8621 26.7304 20.1091 26.4834 20.4138 26.4834Z" fill="#E6E7E8"/>
<path d="M10.4824 7.72461H11.5859C11.8905 7.72461 12.1376 7.97161 12.1376 8.27636V9.3798C12.1376 9.68448 11.8906 9.93155 11.5859 9.93155H10.4824C10.1777 9.93155 9.93066 9.68455 9.93066 9.3798V8.27636C9.93073 7.97161 10.1777 7.72461 10.4824 7.72461Z" fill="#4482C3"/>
<path d="M13.792 7.72461H14.8954C15.2001 7.72461 15.4472 7.97161 15.4472 8.27636V9.3798C15.4472 9.68448 15.2002 9.93155 14.8954 9.93155H13.792C13.4873 9.93155 13.2402 9.68455 13.2402 9.3798V8.27636C13.2402 7.97161 13.4872 7.72461 13.792 7.72461Z" fill="#CB9080"/>
<path d="M17.1025 7.72461H18.206C18.5107 7.72461 18.7577 7.97161 18.7577 8.27636V9.3798C18.7577 9.68448 18.5107 9.93155 18.206 9.93155H17.1025C16.7978 9.93155 16.5508 9.68455 16.5508 9.3798V8.27636C16.5508 7.97161 16.7978 7.72461 17.1025 7.72461Z" fill="#E6E7E8"/>
<path d="M20.4138 7.72461H21.5172C21.8219 7.72461 22.069 7.97161 22.069 8.27636V9.3798C22.069 9.68448 21.822 9.93155 21.5172 9.93155H20.4138C20.1091 9.93155 19.8621 9.68455 19.8621 9.3798V8.27636C19.8621 7.97161 20.1091 7.72461 20.4138 7.72461Z" fill="#4482C3"/>
<path d="M10.4824 11.5859H11.5859C11.8905 11.5859 12.1376 11.8329 12.1376 12.1377V13.2411C12.1376 13.5458 11.8906 13.7929 11.5859 13.7929H10.4824C10.1777 13.7929 9.93066 13.5459 9.93066 13.2411V12.1377C9.93073 11.833 10.1777 11.5859 10.4824 11.5859Z" fill="#CB9080"/>
<path d="M13.792 11.5859H14.8954C15.2001 11.5859 15.4472 11.8329 15.4472 12.1377V13.2411C15.4472 13.5458 15.2002 13.7929 14.8954 13.7929H13.792C13.4873 13.7929 13.2402 13.5459 13.2402 13.2411V12.1377C13.2402 11.833 13.4872 11.5859 13.792 11.5859Z" fill="#E6E7E8"/>
<path d="M17.1025 11.5859H18.206C18.5107 11.5859 18.7577 11.8329 18.7577 12.1377V13.2411C18.7577 13.5458 18.5107 13.7929 18.206 13.7929H17.1025C16.7978 13.7929 16.5508 13.5459 16.5508 13.2411V12.1377C16.5508 11.833 16.7978 11.5859 17.1025 11.5859Z" fill="#14A085"/>
<path d="M20.4138 11.5859H21.5172C21.8219 11.5859 22.069 11.8329 22.069 12.1377V13.2411C22.069 13.5458 21.822 13.7929 21.5172 13.7929H20.4138C20.1091 13.7929 19.8621 13.5459 19.8621 13.2411V12.1377C19.8621 11.833 20.1091 11.5859 20.4138 11.5859Z" fill="#4482C3"/>
<path d="M10.4824 15.4482H11.5859C11.8905 15.4482 12.1376 15.6952 12.1376 16V17.1034C12.1376 17.4081 11.8906 17.6552 11.5859 17.6552H10.4824C10.1777 17.6552 9.93066 17.4082 9.93066 17.1034V16C9.93073 15.6953 10.1777 15.4482 10.4824 15.4482Z" fill="#E6E7E8"/>
<path d="M13.792 15.4482H14.8954C15.2001 15.4482 15.4472 15.6952 15.4472 16V17.1034C15.4472 17.4081 15.2002 17.6552 14.8954 17.6552H13.792C13.4873 17.6552 13.2402 17.4082 13.2402 17.1034V16C13.2402 15.6953 13.4872 15.4482 13.792 15.4482Z" fill="#4482C3"/>
<path d="M17.1025 15.4482H18.206C18.5107 15.4482 18.7577 15.6952 18.7577 16V17.1034C18.7577 17.4081 18.5107 17.6552 18.206 17.6552H17.1025C16.7978 17.6552 16.5508 17.4082 16.5508 17.1034V16C16.5508 15.6953 16.7978 15.4482 17.1025 15.4482Z" fill="#14A085"/>
<path d="M20.4138 15.4482H21.5172C21.8219 15.4482 22.069 15.6952 22.069 16V17.1034C22.069 17.4081 21.822 17.6552 21.5172 17.6552H20.4138C20.1091 17.6552 19.8621 17.4082 19.8621 17.1034V16C19.8621 15.6953 20.1091 15.4482 20.4138 15.4482Z" fill="#E6E7E8"/>
<path d="M10.4824 19.3105H11.5859C11.8905 19.3105 12.1376 19.5575 12.1376 19.8623V20.9657C12.1376 21.2704 11.8906 21.5175 11.5859 21.5175H10.4824C10.1777 21.5175 9.93066 21.2705 9.93066 20.9657V19.8623C9.93073 19.5575 10.1777 19.3105 10.4824 19.3105Z" fill="#14A085"/>
<path d="M13.792 19.3105H14.8954C15.2001 19.3105 15.4472 19.5575 15.4472 19.8623V20.9657C15.4472 21.2704 15.2002 21.5175 14.8954 21.5175H13.792C13.4873 21.5175 13.2402 21.2705 13.2402 20.9657V19.8623C13.2402 19.5575 13.4872 19.3105 13.792 19.3105Z" fill="#4482C3"/>
<path d="M17.1025 19.3105H18.206C18.5107 19.3105 18.7577 19.5575 18.7577 19.8623V20.9657C18.7577 21.2704 18.5107 21.5175 18.206 21.5175H17.1025C16.7978 21.5175 16.5508 21.2705 16.5508 20.9657V19.8623C16.5508 19.5575 16.7978 19.3105 17.1025 19.3105Z" fill="#E6E7E8"/>
<path d="M20.4138 19.3105H21.5172C21.8219 19.3105 22.069 19.5575 22.069 19.8623V20.9657C22.069 21.2704 21.822 21.5175 21.5172 21.5175H20.4138C20.1091 21.5175 19.8621 21.2705 19.8621 20.9657V19.8623C19.8621 19.5575 20.1091 19.3105 20.4138 19.3105Z" fill="#CB9080"/>
<path d="M17.1029 23.7246H14.896C14.5913 23.7246 14.3442 23.4776 14.3442 23.1728C14.3442 22.8681 14.5912 22.6211 14.896 22.6211H17.1029C17.4076 22.6211 17.6546 22.8681 17.6546 23.1728C17.6546 23.4776 17.4076 23.7246 17.1029 23.7246Z" fill="#E6E7E8"/>
<path d="M11.0334 4.9658H9.92992C9.62524 4.9658 9.37817 4.7188 9.37817 4.41405C9.37817 4.1093 9.62517 3.8623 9.92992 3.8623H11.0334C11.338 3.8623 11.5851 4.1093 11.5851 4.41405C11.5851 4.7188 11.338 4.9658 11.0334 4.9658Z" fill="#2C3E50"/>
<path d="M22.068 4.9658H20.9646C20.6599 4.9658 20.4128 4.7188 20.4128 4.41405C20.4128 4.1093 20.6598 3.8623 20.9646 3.8623H22.068C22.3727 3.8623 22.6198 4.1093 22.6198 4.41405C22.6198 4.7188 22.3728 4.9658 22.068 4.9658Z" fill="#2C3E50"/>
</svg>
