<svg width="180" height="180" viewBox="0 0 180 180" fill="none" xmlns="http://www.w3.org/2000/svg">
<g clip-path="url(#clip0_5463_27969)">
<path d="M136.756 74.7769V148.953C136.751 156.504 130.631 162.624 123.08 162.629H13.6756C10.5584 162.633 7.5337 161.567 5.10813 159.61C3.87081 158.615 2.81395 157.412 1.98666 156.058C0.684365 153.917 -0.00287851 151.458 9.06212e-06 148.953V74.8274L59.5606 125.26C64.663 129.582 72.1432 129.579 77.2427 125.255L136.756 74.7769Z" fill="#FCC86F"/>
<path d="M136.756 74.7146V74.7767L77.2427 125.253C72.1432 129.579 64.663 129.581 59.5606 125.26L0 74.8272V74.7146C0 67.1622 6.12311 61.0391 13.6756 61.0391H123.08C130.633 61.0391 136.756 67.1622 136.756 74.7146Z" fill="#EAA632"/>
<path d="M134.762 156.068C133.934 157.422 132.878 158.623 131.637 159.615C131.486 159.523 131.347 159.412 131.224 159.283L97.0008 124.462C96.0927 123.516 96.1129 122.016 97.0485 121.098C97.9826 120.178 99.4827 120.181 100.412 121.105L134.636 155.926C134.681 155.971 134.723 156.02 134.762 156.068Z" fill="#EAA632"/>
<path d="M39.5641 124.457L5.52819 159.268C5.40258 159.398 5.26108 159.513 5.10804 159.61C3.87072 158.615 2.81386 157.412 1.98657 156.058C2.02267 156.011 2.06454 155.969 2.10641 155.924L36.1408 121.113C36.7357 120.49 37.6193 120.235 38.4552 120.446C39.2897 120.655 39.9481 121.299 40.1777 122.129C40.4072 122.958 40.1719 123.847 39.5641 124.457Z" fill="#EAA632"/>
<path d="M135.647 18.002C159.59 18.002 179 37.4121 179 61.3551C179 85.2982 159.59 104.708 135.647 104.708C111.704 104.708 92.2937 85.2982 92.2937 61.3551V61.1981C92.3807 37.3166 111.765 18.002 135.647 18.002Z" fill="#CDE8DE" stroke="#2AC769" stroke-width="2"/>
<path d="M127.531 75.5147C126.773 75.5162 126.054 75.1841 125.563 74.608L113.35 60.3044C112.735 59.6027 112.546 58.6253 112.854 57.7446C113.161 56.8639 113.918 56.2171 114.836 56.0525C115.754 55.8864 116.69 56.2272 117.286 56.9447L127.856 69.3267L154.341 47.7781C155.45 46.8758 157.08 47.0432 157.982 48.1521C158.883 49.2609 158.716 50.8895 157.608 51.7919L129.163 74.9329C128.702 75.3097 128.126 75.5147 127.531 75.5147Z" fill="#2AC769"/>
</g>
<defs>
<clipPath id="clip0_5463_27969">
<rect width="180" height="180" fill="white"/>
</clipPath>
</defs>
</svg>
