<svg width="18" height="18" viewBox="0 0 18 18" fill="none" xmlns="http://www.w3.org/2000/svg">
<circle cx="9" cy="9" r="8" fill="#22C55E"/>
<g clip-path="url(#clip0_13803_27112)">
<path d="M7.93053 11.9985C7.86197 11.9983 7.79419 11.984 7.7314 11.9564C7.66861 11.9289 7.61215 11.8888 7.56553 11.8385L5.13553 9.25349C5.04469 9.15669 4.99603 9.02776 5.00025 8.89508C5.00447 8.7624 5.06123 8.63683 5.15803 8.54599C5.25484 8.45515 5.38376 8.40649 5.51644 8.41071C5.64912 8.41493 5.77469 8.47169 5.86553 8.56849L7.92553 10.7635L12.1305 6.16349C12.1732 6.11035 12.2263 6.0665 12.2865 6.03462C12.3468 6.00275 12.4129 5.98352 12.4808 5.97813C12.5488 5.97274 12.6171 5.98129 12.6816 6.00327C12.7461 6.02524 12.8055 6.06017 12.856 6.10591C12.9065 6.15166 12.9471 6.20724 12.9754 6.26926C13.0036 6.33128 13.0189 6.39842 13.0203 6.46656C13.0216 6.5347 13.0091 6.6024 12.9833 6.6655C12.9576 6.7286 12.9192 6.78576 12.8705 6.83349L8.30053 11.8335C8.25435 11.8847 8.19809 11.9257 8.13528 11.9541C8.07246 11.9825 8.00446 11.9976 7.93553 11.9985H7.93053Z" fill="white"/>
</g>
<rect x="0.5" y="0.5" width="17" height="17" rx="8.5" stroke="white"/>
<defs>
<clipPath id="clip0_13803_27112">
<rect width="12" height="12" fill="white" transform="translate(3 3)"/>
</clipPath>
</defs>
</svg>
