<svg fill="none" height="180" viewBox="0 0 180 180" width="180" xmlns="http://www.w3.org/2000/svg"><path d="m15.7079 19h119.3801c8.676 0 15.708 7.0327 15.708 15.7079v69.1151c0 8.675-7.032 15.708-15.708 15.708h-119.3801c-8.67525 0-15.7079-7.032-15.7079-15.708v-69.1148c0-8.6755 7.03265-15.7082 15.7079-15.7082z" fill="#cfd8dc"/><path d="m150.796 37.8496h-150.796v25.1327h150.796z" fill="#455a64"/><path d="m47.1239 88.1149h-25.1326c-1.735 0-3.1417-1.4066-3.1417-3.1417 0-1.735 1.4067-3.1417 3.1417-3.1417h25.1326c1.7351 0 3.1417 1.4067 3.1417 3.1417 0 1.7351-1.4066 3.1417-3.1417 3.1417z" fill="#fafafa"/><path d="m65.9735 100.682h-43.9822c-1.735 0-3.1417-1.4068-3.1417-3.1419 0-1.735 1.4067-3.1417 3.1417-3.1417h43.9822c1.735 0 3.1417 1.4067 3.1417 3.1417 0 1.7351-1.4067 3.1419-3.1417 3.1419z" fill="#fafafa"/><path d="m135.805 160.77c24.193 0 43.805-19.613 43.805-43.806 0-24.1926-19.612-43.8048-43.805-43.8048s-43.805 19.6122-43.805 43.8048c0 24.193 19.612 43.806 43.805 43.806z" fill="#e93c3c"/><g fill="#fafafa"><path d="m151.734 136.876c-1.057.002-2.071-.416-2.819-1.163l-31.859-31.858c-1.528-1.582-1.484-4.1032.098-5.6313 1.544-1.4903 3.99-1.4903 5.533 0l31.858 31.8583c1.553 1.558 1.549 4.079-.009 5.632-.743.742-1.751 1.16-2.802 1.162z"/><path d="m119.876 136.876c-2.199.004-3.985-1.776-3.989-3.975-.002-1.061.419-2.078 1.17-2.827l31.858-31.8581c1.582-1.5277 4.103-1.484 5.631.0978 1.491 1.5434 1.491 3.9903 0 5.5333l-31.858 31.858c-.745.748-1.757 1.169-2.812 1.171z"/></g></svg>