<svg fill="none" height="180" viewBox="0 0 180 180" width="180" xmlns="http://www.w3.org/2000/svg"><path d="m133.448 132.269c-1.049.003-2.028-.523-2.604-1.399-.576-.877-.67-1.985-.251-2.946l18.373-41.6793v-36.9621c0-1.7139 1.389-3.1034 3.103-3.1034s3.103 1.3895 3.103 3.1034c0 40.9035 0 37.9863-.248 38.8552l-18.621 42.2072c-.476 1.159-1.602 1.918-2.855 1.924z" fill="#9fc9d3"/><path d="m170.69 132.269c-1.238.004-2.36-.728-2.855-1.862l-18.621-42.2692c-.372-.8379-.248 2.3897-.248-38.8552 0-1.7139 1.39-3.1034 3.104-3.1034s3.103 1.3895 3.103 3.1034v36.9621l18.372 41.6793c.42.961.326 2.069-.25 2.946-.576.876-1.556 1.402-2.605 1.399z" fill="#9fc9d3"/><path d="m14.2763 104.4c-3.0789-1.222-5.27708-3.987-5.77237-7.2621l-7.2931-48.6931c-.695353-4.6238 2.1466-9.0461 6.64137-10.3345l21.7241-7.0759-1.6448 77.9276c-4.7331-.912-9.3247-2.446-13.6552-4.562z" fill="#2c3e50"/><path d="m48.1036 180c23.1388 0 41.8965-18.758 41.8965-41.897 0-23.138-18.7577-41.8962-41.8965-41.8962s-41.89657 18.7582-41.89657 41.8962c0 23.139 18.75777 41.897 41.89657 41.897z" fill="#e8e8e8"/><path d="m86.8965 122.276c0 7.727.3724 10.024-1.0862 12.941-1.2282 2.599-3.4439 4.598-6.1543 5.554-2.7103.956-5.6903.789-8.2767-.464-3.768-1.804-6.1773-5.599-6.2069-9.776v6.021c.0713 5.213-3.5123 9.767-8.5966 10.924-3.2276.701-6.5986-.11-9.1552-2.201-2.5565-2.091-4.0191-5.235-3.9724-8.537v-20.141c.0426-1.461-.9397-2.754-2.3586-3.104-15.9207-3.941-14.4-3.538-15.0517-3.786-2.0157-.685-3.7856-1.948-5.0897-3.631 10.255-8.6903 24.0547-11.9369 37.1084-8.7302 13.0538 3.2062 23.7787 12.4772 28.8399 24.9302z" fill="#dbdde0"/><path d="m40.3455 167.586c5.142 0 9.3103-4.168 9.3103-9.31s-4.1683-9.31-9.3103-9.31-9.3103 4.168-9.3103 9.31 4.1683 9.31 9.3103 9.31z" fill="#dbdde0"/><path d="m86.897 94.6551c0 32.9899.4034 32.5859-1.0862 35.6899-1.2225 2.604-3.4359 4.61-6.1468 5.572s-5.694.799-8.2843-.452c-3.7679-1.803-6.1773-5.598-6.2069-9.775v5.896c.0713 5.214-3.5122 9.768-8.5965 10.924-3.2063.696-6.555-.099-9.1063-2.162s-4.0301-5.171-4.0213-8.452v-20.172c.0425-1.461-.9398-2.753-2.3586-3.103-15.7345-3.787-14.4-3.414-15.0518-3.662-4.4123-1.526-7.3841-5.6665-7.4172-10.3349v-33.9207l48.9724-3.4759 16.5414 30.1966c1.7825 1.9863 2.7664 4.5622 2.7621 7.231z" fill="#35495e"/><path d="m71.3805 96.2068v39.2582c-3.7887-1.78-6.2074-5.589-6.2069-9.775 0-32.6798.4034-31.0349-1.1483-33.5487-.7926-.9443-.9512-2.2682-.4039-3.373.5472-1.1047 1.6965-1.7807 2.928-1.7223s2.3116.8402 2.7518 1.9918c1.3336 2.1555 2.0526 4.6345 2.0793 7.169z" fill="#2c3e50"/><path d="m62.0693 65.9483c7.3862 16.2931.869 18.6207 3.8483 25.0448 3.8793 8.5035 23.3379 9.3099 17.7828-19.2414-1.0242-5.3379-2.8862-13.0034-7.2-16.6965z" fill="#3f5c6c"/><path d="m65.1729 111.724c5.9896-6.734 14.6793-16.2308 20.6689-21.7239 16.2932-15.0828 43.9452-36.2483 76.8722-43.4483 3.171-.8884 5.096-4.0979 4.387-7.3133s-3.806-5.3176-7.056-4.7901c-28.458 6.2069-62.0687 24.0207-93.6308 57.3827-.4388.399-.8534.8239-1.2413 1.2724z" fill="#a56a43"/><path d="m152.069 173.793c15.426 0 27.931-12.505 27.931-27.931s-12.505-27.931-27.931-27.931-27.931 12.505-27.931 27.931 12.505 27.931 27.931 27.931z" fill="#e8e8e8"/><path d="m141.208 154.8c4.285 0 7.758-3.474 7.758-7.759s-3.473-7.758-7.758-7.758-7.759 3.473-7.759 7.758 3.474 7.759 7.759 7.759z" fill="#dbdde0"/><path d="m108.621 37.2413c-1.714 0-3.103-1.3895-3.103-3.1035v-12.4137c0-1.714 1.389-3.1035 3.103-3.1035s3.103 1.3895 3.103 3.1035v12.4137c0 1.714-1.389 3.1035-3.103 3.1035z" fill="#e8e8e8"/><path d="m114.828 31.0345h-12.414c-1.714 0-3.1035-1.3894-3.1035-3.1034s1.3895-3.1035 3.1035-3.1035h12.414c1.714 0 3.103 1.3895 3.103 3.1035s-1.389 3.1034-3.103 3.1034z" fill="#dbdde0"/><path d="m127.241 102.414c-1.714 0-3.103-1.39-3.103-3.1035v-12.4138c0-1.714 1.389-3.1035 3.103-3.1035s3.104 1.3895 3.104 3.1035v12.4138c0 1.7135-1.39 3.1035-3.104 3.1035z" fill="#e8e8e8"/><path d="m133.448 96.2069h-12.414c-1.714 0-3.103-1.3895-3.103-3.1035 0-1.7139 1.389-3.1034 3.103-3.1034h12.414c1.714 0 3.103 1.3895 3.103 3.1034 0 1.714-1.389 3.1035-3.103 3.1035z" fill="#dbdde0"/><path d="m164.483 18.6207c-1.714 0-3.103-1.3895-3.103-3.1035v-12.41375c0-1.71399 1.389-3.10345 3.103-3.10345s3.104 1.38946 3.104 3.10345v12.41375c0 1.714-1.39 3.1035-3.104 3.1035z" fill="#e8e8e8"/><g fill="#dbdde0"><path d="m170.69 12.4137h-12.414c-1.714 0-3.103-1.3895-3.103-3.10347 0-1.71398 1.389-3.10344 3.103-3.10344h12.414c1.714 0 3.104 1.38946 3.104 3.10344 0 1.71397-1.39 3.10347-3.104 3.10347z"/><path d="m84.0417 159.672c-4.3975 7.258-10.8892 13.014-18.6207 16.511-4.5592-5.142-4.0868-13.007 1.0551-17.566 5.142-4.559 13.0064-4.087 17.5656 1.055z"/><path d="m27.9321 131.896c-.006 5.064-2.7529 9.728-7.1787 12.189-4.4259 2.461-9.8372 2.334-14.14198-.333-1.23199-8.79.38884-17.742 4.62418-25.542 4.1001-.817 8.3509.245 11.5843 2.895 3.2334 2.651 5.1093 6.611 5.1122 10.791z"/></g><path d="m19.9872 50.9895c-1.2103 2.0172-1.1793 2.9172-2.0793 8.4103-2.018 12.0937 4.0869 24.0895 15.0517 29.5759 20.1724 10.0552 20.0173 10.3345 22.9035 10.3345 3.3636-.0028 6.4641-1.8196 8.1107-4.7526s1.5832-6.5261-.1659-9.3991c-1.8621-3.1035-4.1897-3.6621-11.8862-7.5414l-10.6138-5.3069c-2.6592-1.324-4.527-3.8374-5.0276-6.7655z" fill="#3f5c6c"/><path d="m15.5176 34.1379c0 18.8539 15.2841 34.138 34.1379 34.138 18.8539 0 34.1379-15.2841 34.1379-34.138 0-18.8538-15.284-34.1379-34.1379-34.1379-18.8538 0-34.1379 15.2841-34.1379 34.1379z" fill="#547580"/><path d="m79.4793 50.7414c-12.7862 8.0069-32.0586 6.4241-42.2379-3.2586-15.0207-14.1828-1.3035-35.069 23.2758-35.069 6.6746-.0952 13.2428 1.6785 18.9621 5.1207 5.7462 10.3232 5.7462 22.8837 0 33.2069z" fill="#88b8ff"/><path d="m74.483 37.2413c-1.714 0-3.1035-1.3895-3.1035-3.1035 0-9.3103-11.9172-9.3103-12.4137-9.3103-1.714 0-3.1035-1.3895-3.1035-3.1034 0-1.714 1.3895-3.1035 3.1035-3.1035 6.4551 0 18.6206 3.2586 18.6206 15.5172 0 1.714-1.3894 3.1035-3.1034 3.1035z" fill="#dceaff"/><path d="m82.5209 43.4483c-.7366 2.567-1.7785 5.0364-3.1034 7.3552-9.1302 5.3124-20.0601 6.583-30.1655 3.5069-15.7966-4.7793-22.5311-18.3103-15.5173-29.2345 9.869 11.5138 25.6966 22.438 48.7862 18.3724z" fill="#4b93ff"/><path d="m179.752 149.431c-1.083 8.361-5.885 15.786-13.066 20.204-4.91-1.654-8.277-6.182-8.446-11.36s2.895-9.917 7.687-11.887 10.303-.757 13.825 3.043z" fill="#dbdde0"/><path d="m164.483 122.214c-.459 4.697-4.607 8.154-9.311 7.758-7.075 0-11.606-6.207-8.1-11.607 5.86-1.063 11.906-.226 17.256 2.39.09.481.142.969.155 1.459z" fill="#dbdde0"/></svg>